<svg width="85" height="41" viewBox="0 0 85 41" fill="none" xmlns="http://www.w3.org/2000/svg">
<path d="M13.1462 12.4028H13.1433C10.7453 12.4028 8.80127 14.1304 8.80127 16.2615V16.264C8.80127 18.3951 10.7453 20.1227 13.1433 20.1227H13.1462C15.5442 20.1227 17.4882 18.3951 17.4882 16.264V16.2615C17.4882 14.1304 15.5442 12.4028 13.1462 12.4028Z" fill="#2196F3"/>
<path d="M45.195 11.1693C45.1882 8.20934 43.8623 5.37227 41.5074 3.279C39.1525 1.18573 35.9604 0.0067211 32.6297 0V0C29.298 0.00537723 26.1045 1.18379 23.7484 3.27721C21.3922 5.37063 20.0655 8.20846 20.0587 11.1693V27.4922C20.0587 27.4922 45.1922 25.0045 45.195 11.1719V11.1693Z" fill="#2196F3"/>
<path d="M0 32.8495C0.00604098 34.9091 0.929149 36.8829 2.56761 38.3394C4.20607 39.796 6.42668 40.6171 8.74418 40.6231C11.0612 40.6171 13.2814 39.7964 14.9197 38.3403C16.5581 36.8843 17.4816 34.9112 17.4884 32.8521V21.4944C17.4884 21.4944 0 23.2267 0 32.8495ZM8.74418 34.8845C8.2913 34.8845 7.84859 34.7651 7.47203 34.5415C7.09548 34.3179 6.80199 34.0001 6.62868 33.6283C6.45537 33.2564 6.41002 32.8473 6.49838 32.4525C6.58673 32.0578 6.80481 31.6952 7.12505 31.4106C7.44528 31.126 7.85328 30.9322 8.29746 30.8537C8.74164 30.7751 9.20204 30.8154 9.62045 30.9695C10.0389 31.1235 10.3965 31.3843 10.6481 31.7189C10.8997 32.0536 11.034 32.447 11.034 32.8495C11.0351 33.1174 10.9767 33.3828 10.8622 33.6306C10.7476 33.8784 10.5791 34.1036 10.3664 34.2934C10.1536 34.4832 9.90081 34.6337 9.62244 34.7365C9.34406 34.8392 9.04561 34.8921 8.74418 34.8921V34.8845Z" fill="#2196F3"/>
<path d="M26.4177 33.7638H24.7302V35.507H23.8513V31.2413H26.6286V31.9532H24.7302V33.0548H26.4177V33.7638ZM30.6423 33.4708C30.6423 33.8907 30.5681 34.2589 30.4196 34.5753C30.2712 34.8917 30.0583 35.1359 29.7809 35.3077C29.5056 35.4796 29.1891 35.5656 28.8317 35.5656C28.4782 35.5656 28.1628 35.4806 27.8854 35.3107C27.6081 35.1407 27.3932 34.8986 27.2409 34.5841C27.0886 34.2677 27.0114 33.9044 27.0095 33.4943V33.2833C27.0095 32.8634 27.0847 32.4943 27.235 32.1759C27.3874 31.8556 27.6013 31.6105 27.8766 31.4406C28.154 31.2687 28.4704 31.1827 28.8259 31.1827C29.1813 31.1827 29.4968 31.2687 29.7722 31.4406C30.0495 31.6105 30.2634 31.8556 30.4138 32.1759C30.5661 32.4943 30.6423 32.8624 30.6423 33.2804V33.4708ZM29.7516 33.2775C29.7516 32.8302 29.6716 32.4904 29.5114 32.2579C29.3513 32.0255 29.1227 31.9093 28.8259 31.9093C28.5309 31.9093 28.3034 32.0245 28.1432 32.255C27.9831 32.4835 27.902 32.8195 27.9001 33.2628V33.4708C27.9001 33.9064 27.9802 34.2443 28.1403 34.4845C28.3005 34.7247 28.5309 34.8448 28.8317 34.8448C29.1266 34.8448 29.3532 34.7296 29.5114 34.4991C29.6696 34.2667 29.7497 33.9288 29.7516 33.4855V33.2775ZM33.4929 34.3878C33.4929 34.2218 33.4343 34.0948 33.3171 34.007C33.1999 33.9171 32.989 33.8234 32.6843 33.7257C32.3796 33.6261 32.1384 33.5284 31.9606 33.4327C31.4763 33.171 31.2341 32.8185 31.2341 32.3751C31.2341 32.1447 31.2985 31.9396 31.4274 31.7599C31.5583 31.5782 31.7448 31.4366 31.987 31.3351C32.2311 31.2335 32.5046 31.1827 32.8073 31.1827C33.112 31.1827 33.3835 31.2384 33.6218 31.3497C33.86 31.4591 34.0446 31.6144 34.1755 31.8156C34.3083 32.0167 34.3747 32.2452 34.3747 32.5011H33.4958C33.4958 32.3058 33.4343 32.1544 33.3112 32.047C33.1882 31.9376 33.0153 31.8829 32.7927 31.8829C32.5778 31.8829 32.4108 31.9288 32.2917 32.0206C32.1725 32.1105 32.113 32.2296 32.113 32.3781C32.113 32.5167 32.1823 32.6329 32.321 32.7267C32.4616 32.8204 32.6677 32.9083 32.9391 32.9904C33.4391 33.1407 33.8034 33.3273 34.0319 33.5499C34.2604 33.7726 34.3747 34.0499 34.3747 34.382C34.3747 34.7511 34.235 35.0411 33.9557 35.2521C33.6765 35.4611 33.3005 35.5656 32.8278 35.5656C32.4997 35.5656 32.2009 35.506 31.9313 35.3868C31.6618 35.2657 31.4557 35.1007 31.3132 34.8917C31.1725 34.6827 31.1022 34.4406 31.1022 34.1652H31.9841C31.9841 34.6359 32.2653 34.8712 32.8278 34.8712C33.0368 34.8712 33.1999 34.8292 33.3171 34.7452C33.4343 34.6593 33.4929 34.5402 33.4929 34.3878ZM38.1833 31.9532H36.8766V35.507H35.9977V31.9532H34.7087V31.2413H38.1833V31.9532ZM41.2536 33.6583H39.5661V34.8009H41.5466V35.507H38.6872V31.2413H41.5407V31.9532H39.5661V32.9698H41.2536V33.6583ZM43.6413 33.9454H42.9411V35.507H42.0622V31.2413H43.6472C44.1511 31.2413 44.5397 31.3536 44.8132 31.5782C45.0866 31.8029 45.2233 32.1202 45.2233 32.5304C45.2233 32.8214 45.1599 33.0646 45.0329 33.2599C44.9079 33.4532 44.7175 33.6075 44.4616 33.7228L45.3845 35.4659V35.507H44.4411L43.6413 33.9454ZM42.9411 33.2335H43.6501C43.8708 33.2335 44.0417 33.1779 44.1628 33.0665C44.2839 32.9532 44.3444 32.798 44.3444 32.6007C44.3444 32.3995 44.2868 32.2413 44.1716 32.1261C44.0583 32.0109 43.8835 31.9532 43.6472 31.9532H42.9411V33.2335ZM48.2673 34.004V35.507H47.3884V31.2413H49.0524C49.3727 31.2413 49.654 31.2999 49.8962 31.4171C50.1403 31.5343 50.3278 31.7013 50.4587 31.9181C50.5895 32.1329 50.655 32.3781 50.655 32.6534C50.655 33.0714 50.5114 33.4015 50.2243 33.6437C49.9391 33.8839 49.5436 34.004 49.0378 34.004H48.2673ZM48.2673 33.2921H49.0524C49.2849 33.2921 49.4616 33.2374 49.5827 33.1281C49.7057 33.0187 49.7673 32.8624 49.7673 32.6593C49.7673 32.4503 49.7057 32.2814 49.5827 32.1525C49.4597 32.0236 49.2897 31.9572 49.0729 31.9532H48.2673V33.2921ZM53.8278 33.6583H52.1403V34.8009H54.1208V35.507H51.2614V31.2413H54.1149V31.9532H52.1403V32.9698H53.8278V33.6583ZM57.9059 31.9532H56.5993V35.507H55.7204V31.9532H54.4313V31.2413H57.9059V31.9532ZM60.9763 33.6583H59.2888V34.8009H61.2692V35.507H58.4099V31.2413H61.2634V31.9532H59.2888V32.9698H60.9763V33.6583ZM63.364 33.9454H62.6638V35.507H61.7849V31.2413H63.3698C63.8737 31.2413 64.2624 31.3536 64.5358 31.5782C64.8093 31.8029 64.946 32.1202 64.946 32.5304C64.946 32.8214 64.8825 33.0646 64.7556 33.2599C64.6306 33.4532 64.4401 33.6075 64.1843 33.7228L65.1071 35.4659V35.507H64.1638L63.364 33.9454ZM62.6638 33.2335H63.3727C63.5934 33.2335 63.7643 33.1779 63.8854 33.0665C64.0065 32.9532 64.0671 32.798 64.0671 32.6007C64.0671 32.3995 64.0095 32.2413 63.8942 32.1261C63.7809 32.0109 63.6061 31.9532 63.3698 31.9532H62.6638V33.2335ZM67.8288 34.3878C67.8288 34.2218 67.7702 34.0948 67.653 34.007C67.5358 33.9171 67.3249 33.8234 67.0202 33.7257C66.7155 33.6261 66.4743 33.5284 66.2966 33.4327C65.8122 33.171 65.57 32.8185 65.57 32.3751C65.57 32.1447 65.6345 31.9396 65.7634 31.7599C65.8942 31.5782 66.0807 31.4366 66.3229 31.3351C66.5671 31.2335 66.8405 31.1827 67.1432 31.1827C67.4479 31.1827 67.7194 31.2384 67.9577 31.3497C68.196 31.4591 68.3806 31.6144 68.5114 31.8156C68.6442 32.0167 68.7106 32.2452 68.7106 32.5011H67.8317C67.8317 32.3058 67.7702 32.1544 67.6472 32.047C67.5241 31.9376 67.3513 31.8829 67.1286 31.8829C66.9138 31.8829 66.7468 31.9288 66.6276 32.0206C66.5085 32.1105 66.4489 32.2296 66.4489 32.3781C66.4489 32.5167 66.5182 32.6329 66.6569 32.7267C66.7975 32.8204 67.0036 32.9083 67.2751 32.9904C67.7751 33.1407 68.1393 33.3273 68.3679 33.5499C68.5964 33.7726 68.7106 34.0499 68.7106 34.382C68.7106 34.7511 68.571 35.0411 68.2917 35.2521C68.0124 35.4611 67.6364 35.5656 67.1638 35.5656C66.8356 35.5656 66.5368 35.506 66.2673 35.3868C65.9977 35.2657 65.7917 35.1007 65.6491 34.8917C65.5085 34.6827 65.4382 34.4406 65.4382 34.1652H66.32C66.32 34.6359 66.6013 34.8712 67.1638 34.8712C67.3727 34.8712 67.5358 34.8292 67.653 34.7452C67.7702 34.6593 67.8288 34.5402 67.8288 34.3878Z" fill="#2196F3"/>
</svg>
