<svg width="94" height="44" viewBox="0 0 94 44" fill="none" xmlns="http://www.w3.org/2000/svg">
<path d="M47.425 20.6415C46.9819 20.0517 46.7699 19.3546 46.8203 18.6529V15.7697C46.8203 14.8859 47.0207 14.2142 47.4216 13.7547C47.8224 13.2952 48.511 13.0664 49.4871 13.0684C50.4044 13.0684 51.0555 13.2639 51.4405 13.655C51.8605 14.154 52.0648 14.7641 52.018 15.3796V16.0572H50.3772V15.3708C50.383 15.1462 50.3671 14.9215 50.3296 14.6991C50.306 14.5471 50.2234 14.4065 50.0952 14.3003C49.9267 14.1857 49.7145 14.1302 49.5007 14.1448C49.2759 14.1303 49.0529 14.1889 48.8756 14.3091C48.7327 14.4267 48.6374 14.581 48.6038 14.749C48.5567 14.9843 48.5351 15.223 48.5393 15.4617V18.9609C48.5134 19.2984 48.5858 19.6362 48.7499 19.9434C48.8315 20.0474 48.9448 20.1298 49.0774 20.1816C49.2099 20.2333 49.3564 20.2524 49.5007 20.2368C49.7109 20.2517 49.9195 20.1948 50.0816 20.0784C50.2153 19.9638 50.3013 19.8143 50.3262 19.6531C50.3645 19.4209 50.3816 19.1865 50.3772 18.9521V18.2423H52.018V18.8905C52.0641 19.532 51.8648 20.1689 51.4507 20.7031C51.0736 21.1313 50.4315 21.3454 49.4871 21.3454C48.5427 21.3454 47.8292 21.1167 47.425 20.6415Z" fill="#AFB1B8"/>
<path d="M54.2569 20.6708C53.8424 20.2221 53.6352 19.568 53.6352 18.7028V15.67C53.6352 14.8135 53.8424 14.1653 54.2569 13.7254C54.6713 13.2854 55.3644 13.0664 56.3359 13.0684C57.3007 13.0684 57.9904 13.2874 58.4048 13.7254C58.8193 14.1653 59.0299 14.8135 59.0299 15.67V18.7028C59.0299 19.5592 58.8193 20.2162 58.398 20.6679C57.9768 21.1196 57.2906 21.3454 56.3359 21.3454C55.3813 21.3454 54.6747 21.1167 54.2569 20.6708ZM57.1003 19.9434C57.2487 19.6623 57.3163 19.3544 57.2974 19.0459V15.3327C57.3164 15.0302 57.2499 14.7282 57.1037 14.4528C57.0205 14.3466 56.9043 14.2629 56.7686 14.211C56.6328 14.1591 56.4829 14.1413 56.3359 14.1595C56.1885 14.1417 56.0383 14.1598 55.9021 14.2116C55.7659 14.2634 55.6491 14.3469 55.5648 14.4528C55.4154 14.7274 55.3477 15.0298 55.3678 15.3327V19.0635C55.3471 19.3721 55.4148 19.6804 55.5648 19.961C55.6604 20.0557 55.7785 20.1315 55.9109 20.1834C56.0433 20.2354 56.1871 20.2623 56.3326 20.2623C56.478 20.2623 56.6218 20.2354 56.7542 20.1834C56.8866 20.1315 57.0047 20.0557 57.1003 19.961V19.9434Z" fill="#AFB1B8"/>
<path d="M61.0035 13.1569H62.7701L64.0984 18.7525L65.4573 13.1569H67.1763L67.3496 21.2336H66.079L65.9431 15.6203L64.6318 21.2336H63.6126L62.2537 15.5998L62.128 21.2336H60.8439L61.0035 13.1569Z" fill="#AFB1B8"/>
<path d="M69.3302 13.1569H72.0819C73.6673 13.1569 74.4599 13.9213 74.4599 15.4502C74.4599 16.9147 73.6254 17.6459 71.9562 17.6439H71.0186V21.2336H69.32L69.3302 13.1569ZM71.6811 16.6087C71.8489 16.6271 72.0193 16.6138 72.1806 16.5697C72.3419 16.5257 72.4902 16.4519 72.6153 16.3535C72.8101 16.0807 72.896 15.7604 72.8599 15.4415C72.8688 15.1951 72.8414 14.9487 72.7783 14.7083C72.7541 14.628 72.7116 14.5526 72.6533 14.4867C72.5949 14.4207 72.522 14.3654 72.4386 14.3241C72.2028 14.2264 71.9422 14.182 71.6811 14.195H71.022V16.6087H71.6811Z" fill="#AFB1B8"/>
<path d="M76.9094 13.1569H78.7337L80.6055 21.2336H79.0225L78.6522 19.3713H77.0249L76.6444 21.2336H75.0376L76.9094 13.1569ZM78.4687 18.4358L77.8334 15.0455L77.1982 18.4358H78.4687Z" fill="#AFB1B8"/>
<path d="M82.1173 13.1569H83.3063L85.5825 17.7642V13.1569H86.9923V21.2336H85.861L83.5713 16.4239V21.2336H82.1139L82.1173 13.1569Z" fill="#AFB1B8"/>
<path d="M90.2945 18.1541L88.4022 13.1682H89.9955L91.1506 16.3709L92.2343 13.1682H93.7936L91.9251 18.1541V21.2336H90.2945V18.1541Z" fill="#AFB1B8"/>
<path d="M50.0477 24.7649V25.1872H48.6617V28.4692H48.0807V25.1872H46.6879V24.7649H50.0477Z" fill="#AFB1B8"/>
<path d="M54.3927 28.4695H53.9442C53.8987 28.4719 53.8538 28.4593 53.8185 28.4343C53.7846 28.4128 53.7587 28.3832 53.7438 28.3492L53.3429 27.4694H51.4201L51.0192 28.3492C51.0078 28.386 50.9869 28.4201 50.958 28.4489C50.9225 28.4735 50.8778 28.486 50.8324 28.4841H50.3839L52.0825 24.78H52.6737L54.3927 28.4695ZM51.5797 27.094H53.1833L52.5038 25.5865C52.4537 25.4725 52.4117 25.356 52.3781 25.2375C52.3543 25.3079 52.3339 25.3754 52.3136 25.434L52.2524 25.5895L51.5797 27.094Z" fill="#AFB1B8"/>
<path d="M57.3211 28.1056C57.4275 28.1104 57.5341 28.1104 57.6404 28.1056C57.7323 28.0975 57.8232 28.0827 57.9122 28.0616C57.9954 28.044 58.0772 28.0215 58.1568 27.9942C58.2316 27.9678 58.3063 27.9355 58.3844 27.9032V27.0702H57.705C57.6882 27.071 57.6714 27.0689 57.6556 27.0638C57.6398 27.0588 57.6254 27.051 57.6133 27.0409C57.6021 27.0325 57.5933 27.0222 57.5874 27.0105C57.5815 26.9988 57.5787 26.9861 57.5793 26.9734V26.6889H58.8974V28.1086C58.7898 28.175 58.6762 28.2339 58.5577 28.2846C58.4366 28.3362 58.3104 28.3784 58.1806 28.4107C58.0417 28.446 57.8996 28.4715 57.7559 28.487C57.5912 28.5027 57.4257 28.5106 57.26 28.5104C56.967 28.5125 56.6763 28.4657 56.4038 28.3726C56.1495 28.2843 55.9184 28.1526 55.7244 27.9854C55.5353 27.8165 55.3864 27.6172 55.2862 27.3987C55.1791 27.1532 55.1261 26.8926 55.1299 26.6302C55.1263 26.3663 55.1781 26.1039 55.2828 25.8559C55.3805 25.6363 55.5297 25.4366 55.721 25.2692C55.9149 25.1026 56.1461 24.9718 56.4005 24.885C56.6914 24.7905 57.0001 24.7437 57.3109 24.7471C57.4691 24.7469 57.627 24.7577 57.7831 24.7794C57.9212 24.7988 58.0567 24.8303 58.1874 24.8732C58.3062 24.9118 58.4201 24.9609 58.5271 25.0199C58.6312 25.0778 58.7301 25.1425 58.8227 25.2135L58.6596 25.4423C58.6468 25.4632 58.6278 25.4807 58.6045 25.4931C58.5812 25.5055 58.5545 25.5123 58.5271 25.5127C58.4895 25.5116 58.453 25.5015 58.4218 25.4834C58.3708 25.4599 58.3165 25.4306 58.2553 25.3954C58.1831 25.3563 58.1069 25.3229 58.0277 25.2956C57.9265 25.2606 57.8219 25.2331 57.7152 25.2135C57.5729 25.1909 57.4284 25.1801 57.2837 25.1812C57.0596 25.1791 56.8371 25.2139 56.6281 25.2839C56.439 25.3494 56.2686 25.4494 56.1287 25.5772C55.9879 25.7104 55.8803 25.8671 55.8127 26.0377C55.661 26.4389 55.661 26.8714 55.8127 27.2726C55.8871 27.4468 56.0028 27.6057 56.1525 27.739C56.2918 27.8661 56.4609 27.9661 56.6485 28.0323C56.8645 28.0963 57.0934 28.1213 57.3211 28.1056Z" fill="#AFB1B8"/>
<path d="M62.7362 28.0468H64.5911V28.4692H62.1689V24.7649H62.7498L62.7362 28.0468Z" fill="#AFB1B8"/>
<path d="M66.5208 28.4692H65.9398V24.7649H66.5208V28.4692Z" fill="#AFB1B8"/>
<path d="M68.6814 24.7825C68.7159 24.7995 68.746 24.8225 68.7697 24.85L71.253 27.6423C71.2497 27.5983 71.2497 27.5543 71.253 27.5103C71.253 27.4692 71.253 27.4282 71.253 27.39V24.7502H71.7592V28.4694H71.4671C71.4238 28.4725 71.3804 28.4654 71.3414 28.4489C71.3061 28.4304 71.275 28.4066 71.2496 28.3785L68.7697 25.5891C68.7697 25.6331 68.7697 25.6742 68.7697 25.7152C68.7697 25.7563 68.7697 25.7944 68.7697 25.8296V28.4694H68.2839V24.7649H68.5863C68.6191 24.765 68.6515 24.771 68.6814 24.7825Z" fill="#AFB1B8"/>
<path d="M76.0364 24.7649V25.1726H73.9777V26.3956H75.6457V26.7887H73.9777V28.0528H76.0364V28.4605H73.3798V24.7649H76.0364Z" fill="#AFB1B8"/>
<path d="M15.1617 1.88878L40.9568 8.21209V30.3701L15.1617 24.0497V1.88878ZM13.5073 0V25.1261L42.6079 32.2618V7.13866L13.5073 0Z" fill="#AFB1B8"/>
<path d="M29.1039 43.9255L0 36.7838V11.6604L29.1039 18.7991V43.9255Z" fill="#AFB1B8"/>
<path d="M13.9897 1.60426L39.4484 7.84828L28.6215 17.1982L3.1594 10.9512L13.9897 1.60426ZM13.5073 0L0 11.661L29.1039 18.7995L42.6078 7.13853L13.5073 0Z" fill="#AFB1B8"/>
<path d="M30.7414 42.512L42.6078 32.2648L30.7414 29.3525V42.512Z" fill="#AFB1B8"/>
</svg>
