<svg width="44" height="42" viewBox="0 0 44 42" fill="none" xmlns="http://www.w3.org/2000/svg">
<path d="M6.72622 40.4015C6.74214 40.4019 6.75781 40.405 6.77232 40.4107C6.78683 40.4164 6.79989 40.4245 6.81074 40.4346L7.02886 40.6431C6.85956 40.8119 6.6503 40.9468 6.41541 41.0388C6.14034 41.1391 5.84389 41.1876 5.54566 41.181C5.26543 41.186 4.987 41.1408 4.72772 41.0483C4.49384 40.9633 4.2837 40.8356 4.11154 40.6739C3.93583 40.5062 3.80049 40.3097 3.71347 40.0958C3.61818 39.8575 3.57114 39.6066 3.57442 39.3543C3.57056 39.1003 3.62142 38.848 3.72438 38.6103C3.81963 38.3951 3.96329 38.1986 4.14698 38.0322C4.33316 37.8691 4.55587 37.7409 4.80134 37.6555C5.06987 37.5651 5.35583 37.52 5.64382 37.5229C5.91133 37.5172 6.17742 37.5583 6.42631 37.6437C6.64225 37.7251 6.84052 37.8381 7.0125 37.9777L6.82983 38.2005C6.81721 38.2161 6.80152 38.2298 6.78348 38.2407C6.76193 38.2536 6.73588 38.2594 6.70986 38.2573C6.68157 38.2556 6.65429 38.2474 6.6308 38.2336L6.53264 38.1744L6.39632 38.0986C6.33747 38.0704 6.27643 38.0459 6.21365 38.0251C6.13278 38 6.04984 37.9802 5.96554 37.9659C5.85854 37.9488 5.74987 37.9408 5.64109 37.9422C5.43371 37.9399 5.22791 37.9738 5.03581 38.0417C4.85666 38.1046 4.69495 38.1999 4.56141 38.3213C4.42545 38.4504 4.32069 38.6018 4.25332 38.7667C4.17653 38.9553 4.13868 39.1542 4.14153 39.3543C4.13825 39.5574 4.17609 39.7595 4.25332 39.9513C4.31985 40.1148 4.42267 40.2653 4.55595 40.3944C4.68083 40.5147 4.83561 40.6087 5.00855 40.6692C5.18652 40.7333 5.37755 40.7655 5.5702 40.764C5.68148 40.7655 5.79272 40.7591 5.90283 40.745C6.08262 40.7259 6.25508 40.6717 6.40723 40.5863C6.48354 40.5425 6.55558 40.4934 6.62262 40.4394C6.65064 40.4162 6.68751 40.4027 6.72622 40.4015Z" fill="#AFB1B8"/>
<path d="M13.0243 39.3539C13.0277 39.6052 12.9778 39.855 12.8771 40.0906C12.7882 40.3044 12.6483 40.4994 12.4664 40.6627C12.2845 40.826 12.0649 40.954 11.822 41.0383C11.2882 41.2152 10.6981 41.2152 10.1643 41.0383C9.92292 40.9527 9.70471 40.8245 9.52357 40.6616C9.34182 40.4953 9.20083 40.2986 9.10916 40.0835C8.91275 39.6064 8.91275 39.0848 9.10916 38.6076C9.20216 38.3924 9.34298 38.1952 9.52357 38.0272C9.70624 37.8694 9.92434 37.746 10.1643 37.6647C10.6974 37.4846 11.2888 37.4846 11.822 37.6647C12.0642 37.7502 12.2833 37.8785 12.4654 38.0414C12.6449 38.2061 12.7848 38.4002 12.8771 38.6123C12.9781 38.8496 13.028 39.1009 13.0243 39.3539ZM12.4518 39.3539C12.4561 39.1528 12.421 38.9525 12.3482 38.7616C12.2871 38.598 12.1878 38.4472 12.0564 38.3186C11.9286 38.1969 11.7712 38.1014 11.5957 38.039C11.2078 37.9095 10.7784 37.9095 10.3906 38.039C10.215 38.1014 10.0576 38.1969 9.92981 38.3186C9.79667 38.4465 9.6963 38.5975 9.63536 38.7616C9.49664 39.1472 9.49664 39.5605 9.63536 39.9461C9.6969 40.11 9.7972 40.2609 9.92981 40.3891C10.0578 40.5101 10.2152 40.6048 10.3906 40.6663C10.7791 40.7926 11.2071 40.7926 11.5957 40.6663C11.771 40.6048 11.9284 40.5101 12.0564 40.3891C12.1872 40.2601 12.2864 40.1094 12.3482 39.9461C12.4213 39.7553 12.4564 39.555 12.4518 39.3539Z" fill="#AFB1B8"/>
<path d="M17.3213 39.9748L17.3785 40.1074C17.4003 40.06 17.4194 40.0174 17.4412 39.9748C17.462 39.9302 17.4857 39.8867 17.5121 39.8445L18.9053 37.6439C18.9326 37.606 18.9571 37.5823 18.9844 37.5752C19.0215 37.5654 19.0602 37.5614 19.0989 37.5634H19.5106V41.1426H19.0226V38.5109C19.0226 38.4777 19.0226 38.4398 19.0226 38.3995C19.0199 38.3585 19.0199 38.3174 19.0226 38.2764L17.6212 40.5077C17.6034 40.5411 17.5749 40.5694 17.5391 40.5892C17.5034 40.6089 17.4618 40.6193 17.4194 40.6191H17.3403C17.2979 40.6196 17.2562 40.6093 17.2204 40.5895C17.1845 40.5698 17.1561 40.5413 17.1386 40.5077L15.6963 38.2621C15.6963 38.3048 15.6963 38.3474 15.6963 38.3901C15.6963 38.4327 15.6963 38.4706 15.6963 38.5038V41.1354H15.2246V37.5634H15.6363C15.675 37.5614 15.7138 37.5654 15.7508 37.5752C15.7846 37.5898 15.8116 37.614 15.8272 37.6439L17.2504 39.8468C17.2783 39.8876 17.3021 39.9304 17.3213 39.9748Z" fill="#AFB1B8"/>
<path d="M22.5643 39.7969V41.1376H22.019V37.5632H23.235C23.4645 37.5594 23.6934 37.5857 23.9139 37.6414C24.0904 37.6849 24.254 37.7608 24.3937 37.8641C24.5148 37.9608 24.6082 38.0809 24.6664 38.2146C24.7307 38.3604 24.7622 38.5156 24.7591 38.6718C24.7615 38.8285 24.7272 38.9841 24.6582 39.1289C24.5927 39.2661 24.4919 39.3884 24.3637 39.4866C24.2239 39.5942 24.0594 39.6749 23.8812 39.7235C23.6689 39.7824 23.4469 39.8104 23.2241 39.8064L22.5643 39.7969ZM22.5643 39.4132H23.2241C23.3674 39.4148 23.5101 39.3964 23.6467 39.3587C23.7594 39.3258 23.8632 39.2734 23.952 39.2047C24.034 39.1392 24.0974 39.0581 24.1374 38.9679C24.1821 38.8724 24.2043 38.7701 24.2029 38.667C24.2092 38.5677 24.1906 38.4683 24.1482 38.3759C24.1058 38.2834 24.0407 38.2001 23.9575 38.1317C23.7492 37.9904 23.4876 37.922 23.2241 37.9399H22.5643V39.4132Z" fill="#AFB1B8"/>
<path d="M29.893 41.1424H29.4622C29.419 41.1439 29.3766 41.1321 29.3423 41.1093C29.3113 41.087 29.287 41.0585 29.2714 41.0264L28.9006 40.1617H27.0384L26.654 41.0264C26.6399 41.058 26.6163 41.0858 26.5858 41.1069C26.5512 41.1312 26.5076 41.1438 26.4631 41.1424H26.0323L27.6682 37.5629H28.2353L29.893 41.1424ZM27.1938 39.8134H28.7316L28.0827 38.3565C28.0331 38.2469 27.9921 38.1345 27.96 38.0201L27.8973 38.2072C27.8782 38.2641 27.8564 38.3162 27.8373 38.3589L27.1938 39.8134Z" fill="#AFB1B8"/>
<path d="M32.2487 37.5795C32.2813 37.5951 32.3093 37.6169 32.3305 37.6435L34.7162 40.3417C34.7162 40.2991 34.7162 40.2565 34.7162 40.2162C34.7162 40.1759 34.7162 40.1356 34.7162 40.0977V37.5629H35.2042V41.1425H34.9316C34.8929 41.1435 34.8545 41.1362 34.8198 41.1211C34.7861 41.1041 34.7565 41.0816 34.7325 41.0548L32.3496 38.3589C32.3522 38.3999 32.3522 38.4411 32.3496 38.4821C32.3496 38.5224 32.3496 38.5579 32.3496 38.5911V41.1425H31.8616V37.5629H32.1506C32.1843 37.5621 32.2178 37.5678 32.2487 37.5795Z" fill="#AFB1B8"/>
<path d="M39.223 39.7189V41.1402H38.6777V39.7189L37.17 37.5631H37.658C37.7001 37.5609 37.7416 37.5719 37.7753 37.5939C37.8049 37.6169 37.8298 37.6441 37.8489 37.6744L38.7922 39.065C38.8304 39.1242 38.8631 39.1787 38.8904 39.2309C38.9177 39.283 38.9395 39.3327 38.9586 39.3825L39.0294 39.2285C39.0559 39.1722 39.0869 39.1176 39.1222 39.065L40.0519 37.665C40.0714 37.637 40.0953 37.6115 40.1228 37.5892C40.1551 37.5646 40.1971 37.5519 40.24 37.5536H40.7335L39.223 39.7189Z" fill="#AFB1B8"/>
<path d="M17.0513 31.5562C17.2885 31.5822 17.5285 31.6036 17.7711 31.6225C21.45 30.1927 24.5621 27.8524 26.7186 24.8942C28.8751 21.9361 29.9802 18.4913 29.8958 14.9905L25.8415 11.4679C26.6658 15.1952 26.2802 19.0483 24.7278 22.596C23.1754 26.1437 20.5175 29.2462 17.0513 31.5562Z" fill="#AFB1B8"/>
<path d="M15.6036 31.3923L15.7127 31.4113C19.4166 29.1094 22.2405 25.8951 23.8192 22.1839C25.3979 18.4727 25.6589 14.4354 24.5683 10.594L18.7936 5.57678C21.1293 9.70081 22.0695 14.3162 21.5048 18.8862C20.94 23.4562 18.8937 27.793 15.6036 31.3923Z" fill="#AFB1B8"/>
<path d="M35.1879 19.1266C34.2068 22.9732 31.8241 26.4423 28.3935 29.0189C27.3916 29.7756 26.3109 30.4496 25.1653 31.0324C27.9588 30.3191 30.5264 29.0578 32.6702 27.346C34.8139 25.6342 36.4766 23.5175 37.5299 21.1591L35.1879 19.1266Z" fill="#AFB1B8"/>
<path d="M34.269 18.5601L30.9346 15.663C30.8708 18.9661 29.79 22.194 27.8045 25.0114C25.8191 27.8288 23.0013 30.1327 19.6442 31.6838H19.6606C20.4087 31.6835 21.1562 31.6447 21.899 31.5677C25.0364 30.4551 27.808 28.685 29.9664 26.4153C32.1249 24.1456 33.603 21.4469 34.269 18.5601Z" fill="#AFB1B8"/>
<path d="M16.0862 3.46096L12.1083 0C8.55217 1.19395 5.49375 3.29288 3.33332 6.02207C1.17289 8.75127 0.0110968 11.9836 0 15.296H0C0.0133281 18.956 1.43121 22.5077 4.02923 25.3889C6.62725 28.27 10.257 30.316 14.344 31.2031C17.9924 27.341 20.1285 22.5688 20.4418 17.5798C20.7551 12.5908 19.2294 7.64499 16.0862 3.46096Z" fill="#AFB1B8"/>
<path d="M43.46 18.0274C43.4456 13.6849 41.4538 9.52384 37.9196 6.45323C34.3855 3.38262 29.5963 1.65204 24.5983 1.63954C22.2887 1.63746 19.9988 2.00774 17.8448 2.73158L42.2004 23.8927C43.0343 22.0221 43.4614 20.0333 43.46 18.0274Z" fill="#AFB1B8"/>
</svg>
