<svg width="63" height="46" viewBox="0 0 63 46" fill="none" xmlns="http://www.w3.org/2000/svg">
<path d="M4.7569 37.9685C5.00058 38.2447 5.13038 38.5905 5.12358 38.9455C5.13601 39.177 5.0914 39.4082 4.99304 39.6218C4.89469 39.8354 4.74511 40.026 4.55539 40.1795C4.08201 40.5069 3.49555 40.6669 2.90369 40.6302H0V34.4387H2.84423C3.40566 34.4045 3.96263 34.5499 4.41995 34.8501C4.60363 34.9909 4.74908 35.1688 4.84482 35.3698C4.94055 35.5709 4.98396 35.7895 4.97162 36.0085C4.98831 36.3501 4.87115 36.6858 4.64128 36.9553C4.42059 37.2013 4.1156 37.3718 3.77579 37.4392C4.16101 37.5036 4.50873 37.6912 4.7569 37.9685ZM1.35109 37.0339H2.56674C2.84303 37.0526 3.11743 36.9796 3.33974 36.8282C3.43101 36.7525 3.50203 36.6585 3.54728 36.5536C3.59254 36.4487 3.61082 36.3357 3.60071 36.2233C3.60929 36.1113 3.59063 35.9989 3.54607 35.8943C3.50151 35.7897 3.43217 35.6955 3.34304 35.6184C3.11408 35.4627 2.83115 35.3885 2.54692 35.4097H1.35109V37.0339ZM3.45866 39.4082C3.55623 39.3307 3.63292 39.2336 3.68277 39.1245C3.73262 39.0154 3.75428 38.8972 3.74606 38.7791C3.7535 38.6597 3.73085 38.5403 3.67988 38.4302C3.6289 38.32 3.55095 38.2221 3.45205 38.1439C3.21421 37.9825 2.9217 37.9032 2.6262 37.9201H1.35109V39.623H2.64272C2.93345 39.6384 3.22122 39.5626 3.45866 39.4082Z" fill="#AFB1B8"/>
<path d="M10.5709 40.6302L8.98857 38.2105H8.39396V40.6302H7.03296V34.4388H9.60961C10.2591 34.3972 10.9012 34.5856 11.4034 34.965C11.7635 35.3011 11.9808 35.7439 12.0159 36.2136C12.051 36.6833 11.9018 37.1491 11.595 37.5269C11.2771 37.8604 10.8428 38.0827 10.3661 38.1561L12.0508 40.6302H10.5709ZM8.39396 37.3666H9.50721C10.2802 37.3666 10.6667 37.0541 10.6667 36.429C10.6746 36.3013 10.6534 36.1736 10.6045 36.0538C10.5556 35.9341 10.48 35.8249 10.3826 35.7333C10.1383 35.5473 9.82374 35.4571 9.50721 35.4823H8.38075L8.39396 37.3666Z" fill="#AFB1B8"/>
<path d="M18.0102 39.3839H15.2981L14.8191 40.6301H13.392L15.8828 34.5082H17.4255L19.9063 40.6301H18.4793L18.0102 39.3839ZM17.6468 38.4463L16.6558 35.833L15.6648 38.4463H17.6468Z" fill="#AFB1B8"/>
<path d="M27.3224 40.6302H25.9713L22.9421 36.4199V40.6302H21.5943V34.4387H22.9421L25.9713 38.6732V34.4387H27.3224V40.6302Z" fill="#AFB1B8"/>
<path d="M35.0326 39.1482C34.7532 39.6156 34.3276 39.9959 33.8103 40.2401C33.2222 40.512 32.5695 40.6461 31.9109 40.6302H29.506V34.4388H31.9109C32.5684 34.423 33.2202 34.5538 33.8103 34.8199C34.3275 35.0585 34.7536 35.435 35.0326 35.8997C35.3107 36.4032 35.4556 36.9596 35.4556 37.5239C35.4556 38.0882 35.3107 38.6446 35.0326 39.1482ZM33.4866 38.9999C33.8722 38.5886 34.0842 38.0645 34.0842 37.5224C34.0842 36.9803 33.8722 36.4562 33.4866 36.0449C33.0205 35.6723 32.4127 35.4832 31.7952 35.5186H30.8571V39.5262H31.7952C32.4127 39.5616 33.0205 39.3725 33.4866 38.9999Z" fill="#AFB1B8"/>
<path d="M18.8558 0C18.8558 0 36.2945 6.02814 35.9245 14.7512V29.5055C35.9245 29.5055 18.4991 23.4743 18.8624 14.7512L18.8558 0Z" fill="#AFB1B8"/>
<path d="M51.4603 26.0513C54.7538 23.9761 58.5633 22.6907 62.5399 22.3129V17.6942C57.9579 19.3112 54.0709 22.2431 51.4603 26.0513Z" fill="#AFB1B8"/>
<path d="M49.4816 27.4428C52.1773 22.4729 56.8505 18.6379 62.54 16.7264V3.41797C62.54 3.41797 37.705 12.005 38.2303 24.4272V45.4334C38.2303 45.4334 39.3369 45.0493 41.0778 44.3294C41.0778 43.658 41.0778 42.9804 41.1571 42.2999C41.6711 36.5329 44.6654 31.1888 49.4816 27.4428Z" fill="#AFB1B8"/>
<path d="M47.1197 35.2464C47.2502 33.7895 47.5413 32.3485 47.9885 30.9453C44.9896 34.1804 43.1734 38.1947 42.7956 42.4239C42.7592 42.8231 42.7394 43.2224 42.7295 43.6337C44.14 43.0137 45.7818 42.2394 47.5062 41.329C47.0662 39.3281 46.936 37.2805 47.1197 35.2464Z" fill="#AFB1B8"/>
<path d="M48.1075 35.322C47.9421 37.1623 48.0454 39.0146 48.4147 40.8299C55.1999 37.1126 62.8241 31.3688 62.5301 24.4272V23.8223C57.6824 24.3189 53.1468 26.2593 49.6204 29.3453C48.7948 31.2577 48.2849 33.272 48.1075 35.322Z" fill="#AFB1B8"/>
</svg>
