<svg width="66" height="70" viewBox="0 0 66 70" fill="none" xmlns="http://www.w3.org/2000/svg">
<path d="M64.974 48.3385L46.5045 29.7337L48.5543 19.6373C49.0833 19.8438 49.6456 19.9517 50.2133 19.9558H50.2273C52.8354 19.9866 54.9747 17.8974 55.0056 15.2893C55.0365 12.6812 52.9471 10.542 50.339 10.5111C47.731 10.4803 45.5917 12.5695 45.5608 15.1776C45.5543 15.7357 45.6466 16.2905 45.8337 16.8163L34.9837 18.1405L17.2853 0.35C17.0682 0.128479 16.7719 0.00247917 16.4617 0C16.1554 0.00160417 15.8621 0.123521 15.645 0.3395L12.3363 3.6295C11.8809 4.08508 11.8809 4.82358 12.3363 5.27917L14.1167 7.08517C7.21933 19.7681 9.45963 35.4741 19.628 45.7228C19.7213 45.8121 19.8295 45.8843 19.9477 45.9363C19.8742 46.3311 19.8358 46.7317 19.8333 47.1333V60.6667H5.83333C2.61333 60.6705 0.00379167 63.28 0 66.5V68.8333C0 69.4776 0.522375 70 1.16667 70H54.8333C55.4776 70 56 69.4776 56 68.8333V66.5C55.9962 63.28 53.3867 60.6705 50.1667 60.6667H36.1667V54.6688C38.3599 55.1288 40.5945 55.3633 42.8353 55.3688C48.2125 55.363 53.5041 54.0225 58.2353 51.4675L60.025 53.2677C60.2421 53.4892 60.5385 53.6152 60.8487 53.6177C61.1549 53.6161 61.4482 53.4941 61.6653 53.2782L64.974 49.9882C65.4294 49.5326 65.4294 48.7941 64.974 48.3385ZM48.5823 13.6348C49.496 12.726 50.9734 12.7301 51.8821 13.6437C52.7909 14.5574 52.7869 16.0348 51.8732 16.9435C51.4359 17.3785 50.8441 17.6226 50.2272 17.6225H50.2202C48.9316 17.6158 47.8923 16.5658 47.899 15.2771C47.9022 14.6602 48.1495 14.0699 48.5869 13.6348H48.5823ZM45.836 21.301L44.527 27.7445L41.9557 25.158L45.836 21.301ZM44.5107 19.3282L40.3107 23.5037L37.0615 20.237L44.5107 19.3282ZM50.1667 63C52.0997 63 53.6667 64.567 53.6667 66.5V67.6667H2.33333V66.5C2.33333 64.567 3.90031 63 5.83333 63H50.1667ZM33.8333 58.3333V60.6667H22.1667V58.3333H33.8333ZM22.1667 56V47.1333C22.1667 44.303 24.7835 42 28 42C31.2165 42 33.8333 44.303 33.8333 47.1333V56H22.1667ZM36.1667 52.29V47.1333C36.1667 43.0162 32.5033 39.6667 28 39.6667C25.0883 39.622 22.3656 41.1041 20.8227 43.5738C11.9464 34.2249 9.94758 20.2875 15.8382 8.82073L56.5297 49.7455C50.2463 52.9419 43.0434 53.8418 36.1667 52.29ZM60.8615 50.7943L59.2177 49.1412L16.45 6.11567L14.7992 4.46133L16.45 2.81633L33.8077 20.272C33.8158 20.272 33.8205 20.2872 33.8287 20.293L62.517 49.1493L60.8615 50.7943Z" fill="#212121"/>
<path d="M28.0105 44.3333H28C26.067 44.3304 24.4977 45.895 24.4948 47.8281C24.4918 49.7611 26.0565 51.3304 27.9895 51.3333H28C29.933 51.3362 31.5023 49.7716 31.5053 47.8386C31.5082 45.9055 29.9435 44.3362 28.0105 44.3333ZM28.8272 48.6605C28.6075 48.8789 28.3099 49.0012 28 49C27.3557 48.9966 26.8361 48.4716 26.8395 47.8273C26.8411 47.5189 26.9647 47.2237 27.1833 47.0062C27.4005 46.7902 27.6938 46.6683 28 46.6667C28.6443 46.67 29.1639 47.195 29.1605 47.8393C29.1589 48.1477 29.0353 48.4429 28.8167 48.6605H28.8272Z" fill="#2196F3"/>
</svg>
