<svg dislay="none" xmlns="http://www.w3.org/2000/svg">
    <symbol id="mail" viewBox="0 0 16 12">
        <g>
        <path d="M14.5 0H1.50001C0.672854 0 0 0.672853 0 1.50001V10.5C0 11.3271 0.672854 12 1.50001 12H14.5C15.3271 12 16 11.3271 16 10.5V1.50001C16 0.672853 15.3271 0 14.5 0ZM14.5 0.999994C14.5679 0.999994 14.6325 1.01409 14.6916 1.0387L8 6.83838L1.30833 1.0387C1.36742 1.01412 1.43204 0.999994 1.49998 0.999994H14.5ZM14.5 11H1.50001C1.22414 11 0.999996 10.7759 0.999996 10.5V2.09521L7.67236 7.87792C7.76661 7.95944 7.8833 7.99999 8 7.99999C8.1167 7.99999 8.23339 7.95948 8.32764 7.87792L15 2.09521V10.5C15 10.7759 14.7759 11 14.5 11Z" />
        </g>
    </symbol>
    <symbol id="namber" viewBox="0 0 10 16">
    <g> 
        <path d="M8.5 0H1.5C0.672848 0 0 0.672848 0 1.5V14.5C0 15.3272 0.672848 16 1.5 16H8.5C9.32715 16 10 15.3272 10 14.5V1.5C10 0.672848 9.32715 0 8.5 0ZM1.5 1H8.5C8.77588 1 9 1.22412 9 1.5V12H1V1.5C1 1.22412 1.22412 1 1.5 1ZM8.5 15H1.5C1.22412 15 1 14.7759 1 14.5V13H9V14.5C9 14.7759 8.77588 15 8.5 15Z"/>
        <path d="M2.35355 13.7389C2.54882 13.9213 2.54882 14.2169 2.35355 14.3992C2.15828 14.5816 1.84172 14.5816 1.64645 14.3992C1.45118 14.2169 1.45118 13.9213 1.64645 13.7389C1.84172 13.5566 2.15828 13.5566 2.35355 13.7389Z"/>
        </g>
    </symbol>
    <symbol id="clock" viewBox="0 0 70 70">
        <g> 
            <path d="M68.4614 33.4715C68.4576 14.9819 53.4656 -0.00373771 34.9754 6.99302e-07C16.4858 0.00373911 1.50017 14.9963 1.50391 33.4859C1.50711 48.0502 10.9252 60.9413 24.7995 65.3713C24.9319 65.413 25.0697 65.4343 25.2081 65.4338C25.4719 65.4333 25.7304 65.3628 25.9573 65.2287C26.2527 65.0541 26.4732 64.7764 26.5768 64.449L35.0315 37.6521C37.3429 37.6404 39.2068 35.7568 39.1945 33.4459C39.1827 31.1345 37.2997 29.2706 34.9883 29.2824C34.3666 29.285 33.753 29.4282 33.1944 29.7011L22.0251 18.5302C21.4707 17.9951 20.5879 18.0106 20.0528 18.5644C19.5305 19.1054 19.5305 19.962 20.0528 20.503L31.2162 31.6792C30.3596 33.4277 30.8493 35.5383 32.3895 36.7303L24.3338 62.2647C8.41354 56.4002 0.261689 38.7405 6.12618 22.8203C11.9907 6.90002 29.6503 -1.25183 45.5706 4.61266C61.4909 10.4771 69.6427 28.1374 63.7782 44.0571C60.913 51.8351 55.0261 58.1252 47.4548 61.4989L46.5842 57.3989C46.4251 56.6454 45.6844 56.1636 44.9308 56.3233C44.6931 56.3741 44.4726 56.4857 44.291 56.6475L35.8978 64.1409C35.322 64.653 35.2708 65.5347 35.7835 66.1105C35.9501 66.2974 36.1637 66.4362 36.403 66.5126L47.1188 69.9327C47.8521 70.1682 48.6377 69.765 48.8732 69.0312C48.948 68.7994 48.9603 68.5527 48.9101 68.3145L48.0545 64.2915C60.4452 59.0678 68.4902 46.918 68.4614 33.4715ZM34.9829 32.0766C35.753 32.0766 36.3779 32.7014 36.3779 33.4715C36.3779 34.2422 35.753 34.8665 34.9829 34.8665C34.2123 34.8665 33.588 34.2422 33.588 33.4715C33.588 32.7014 34.2123 32.0766 34.9829 32.0766ZM39.5774 64.5916L44.3551 60.3298L45.6737 66.543L39.5774 64.5916Z"/>
            <path d="M33.5879 6.96729V9.7572C33.5879 10.5278 34.2122 11.1522 34.9828 11.1522C35.753 11.1522 36.3778 10.5278 36.3778 9.7572V6.96729C36.3778 6.19717 35.753 5.57233 34.9828 5.57233C34.2122 5.57233 33.5879 6.19717 33.5879 6.96729Z" />
            <path d="M8.4787 32.0765C7.70805 32.0765 7.08374 32.7014 7.08374 33.4715C7.08374 34.2421 7.70805 34.8665 8.4787 34.8665H11.2686C12.0393 34.8665 12.6636 34.2421 12.6636 33.4715C12.6636 32.7014 12.0393 32.0765 11.2686 32.0765H8.4787Z" />
            <path d="M61.4866 34.8665C62.2572 34.8665 62.8815 34.2421 62.8815 33.4715C62.8815 32.7014 62.2572 32.0765 61.4866 32.0765H58.6967C57.9265 32.0765 57.3017 32.7014 57.3017 33.4715C57.3017 34.2421 57.9265 34.8665 58.6967 34.8665H61.4866Z" />
        </g>
    </symbol>
    <symbol id="group" viewBox="0 0 66 70">
            <g> 
                <path d="M64.974 48.3385L46.5045 29.7337L48.5543 19.6373C49.0833 19.8438 49.6456 19.9517 50.2133 19.9558H50.2273C52.8354 19.9866 54.9747 17.8974 55.0056 15.2893C55.0365 12.6812 52.9471 10.542 50.339 10.5111C47.731 10.4803 45.5917 12.5695 45.5608 15.1776C45.5543 15.7357 45.6466 16.2905 45.8337 16.8163L34.9837 18.1405L17.2853 0.35C17.0682 0.128479 16.7719 0.00247917 16.4617 0C16.1554 0.00160417 15.8621 0.123521 15.645 0.3395L12.3363 3.6295C11.8809 4.08508 11.8809 4.82358 12.3363 5.27917L14.1167 7.08517C7.21933 19.7681 9.45963 35.4741 19.628 45.7228C19.7213 45.8121 19.8295 45.8843 19.9477 45.9363C19.8742 46.3311 19.8358 46.7317 19.8333 47.1333V60.6667H5.83333C2.61333 60.6705 0.00379167 63.28 0 66.5V68.8333C0 69.4776 0.522375 70 1.16667 70H54.8333C55.4776 70 56 69.4776 56 68.8333V66.5C55.9962 63.28 53.3867 60.6705 50.1667 60.6667H36.1667V54.6688C38.3599 55.1288 40.5945 55.3633 42.8353 55.3688C48.2125 55.363 53.5041 54.0225 58.2353 51.4675L60.025 53.2677C60.2421 53.4892 60.5385 53.6152 60.8487 53.6177C61.1549 53.6161 61.4482 53.4941 61.6653 53.2782L64.974 49.9882C65.4294 49.5326 65.4294 48.7941 64.974 48.3385ZM48.5823 13.6348C49.496 12.726 50.9734 12.7301 51.8821 13.6437C52.7909 14.5574 52.7869 16.0348 51.8732 16.9435C51.4359 17.3785 50.8441 17.6226 50.2272 17.6225H50.2202C48.9316 17.6158 47.8923 16.5658 47.899 15.2771C47.9022 14.6602 48.1495 14.0699 48.5869 13.6348H48.5823ZM45.836 21.301L44.527 27.7445L41.9557 25.158L45.836 21.301ZM44.5107 19.3282L40.3107 23.5037L37.0615 20.237L44.5107 19.3282ZM50.1667 63C52.0997 63 53.6667 64.567 53.6667 66.5V67.6667H2.33333V66.5C2.33333 64.567 3.90031 63 5.83333 63H50.1667ZM33.8333 58.3333V60.6667H22.1667V58.3333H33.8333ZM22.1667 56V47.1333C22.1667 44.303 24.7835 42 28 42C31.2165 42 33.8333 44.303 33.8333 47.1333V56H22.1667ZM36.1667 52.29V47.1333C36.1667 43.0162 32.5033 39.6667 28 39.6667C25.0883 39.622 22.3656 41.1041 20.8227 43.5738C11.9464 34.2249 9.94758 20.2875 15.8382 8.82073L56.5297 49.7455C50.2463 52.9419 43.0434 53.8418 36.1667 52.29ZM60.8615 50.7943L59.2177 49.1412L16.45 6.11567L14.7992 4.46133L16.45 2.81633L33.8077 20.272C33.8158 20.272 33.8205 20.2872 33.8287 20.293L62.517 49.1493L60.8615 50.7943Z"/>
                <path d="M28.0105 44.3333H28C26.067 44.3304 24.4977 45.895 24.4948 47.8281C24.4918 49.7611 26.0565 51.3304 27.9895 51.3333H28C29.933 51.3362 31.5023 49.7716 31.5053 47.8386C31.5082 45.9055 29.9435 44.3362 28.0105 44.3333ZM28.8272 48.6605C28.6075 48.8789 28.3099 49.0012 28 49C27.3557 48.9966 26.8361 48.4716 26.8395 47.8273C26.8411 47.5189 26.9647 47.2237 27.1833 47.0062C27.4005 46.7902 27.6938 46.6683 28 46.6667C28.6443 46.67 29.1639 47.195 29.1605 47.8393C29.1589 48.1477 29.0353 48.4429 28.8167 48.6605H28.8272Z"/>
            </g>
    </symbol>
    <symbol id="diagram" viewBox="0 0 70 70">
    <g>
        <g clip-path="url(#clip0_1_365)">
        <path d="M69.9433 9.89637C69.8056 9.47513 69.4416 9.16724 69.0018 9.10298L64.8228 8.49512L62.9526 4.70809C62.5606 3.91005 61.2527 3.91005 60.8608 4.70809L58.9906 8.49512L54.8114 9.10312C54.3716 9.16724 54.0076 9.47418 53.8687 9.89651C53.7323 10.3188 53.8453 10.7831 54.1639 11.0924L57.1891 14.0407L56.4752 18.2034C56.4005 18.6409 56.5802 19.0831 56.9384 19.3445C57.3012 19.6082 57.7748 19.6407 58.168 19.4331L61.9061 17.4672L65.6442 19.4331C65.8146 19.5229 66.0024 19.5672 66.1879 19.5672C66.4294 19.5672 66.671 19.4925 66.874 19.3443C67.2333 19.0831 67.413 18.6408 67.3372 18.2033L66.6233 14.0405L69.6485 11.0923C69.9654 10.7819 70.0798 10.3187 69.9433 9.89637ZM64.5556 12.7991C64.2815 13.0662 64.1555 13.4536 64.2208 13.8316L64.6385 16.2688L62.4499 15.1184C62.2795 15.0286 62.0929 14.9843 61.9061 14.9843C61.7195 14.9843 61.534 15.0286 61.3624 15.1184L59.1736 16.2688L59.5913 13.8316C59.6567 13.4536 59.5306 13.0675 59.2565 12.7991L57.4843 11.0724L59.932 10.7166C60.3124 10.6617 60.6402 10.4226 60.8106 10.0783L61.9049 7.86169L62.9992 10.0783C63.1696 10.4225 63.4974 10.6617 63.8778 10.7166L66.3255 11.0724L64.5556 12.7991Z"/>
        <path d="M57.167 44.8923H54.8336V47.2257H57.167V44.8923Z" />
        <path d="M57.167 49.5591H54.8336V51.8925H57.167V49.5591Z" />
        <path d="M59.5004 47.2257H57.167V49.5591H59.5004V47.2257Z" />
        <path d="M54.8337 47.2257H52.5003V49.5591H54.8337V47.2257Z" />
        <path d="M49.0002 57.7259H46.6668V60.0593H49.0002V57.7259Z" />
        <path d="M49.0002 62.3926H46.6668V64.726H49.0002V62.3926Z" />
        <path d="M51.3337 60.0593H49.0002V62.3927H51.3337V60.0593Z" />
        <path d="M46.6668 60.0593H44.3334V62.3927H46.6668V60.0593Z" />
        <path d="M35 53.0592H32.6666V55.3926H35V53.0592Z" />
        <path d="M35 57.7259H32.6666V60.0593H35V57.7259Z"/>
        <path d="M37.3334 55.3925H35V57.7259H37.3334V55.3925Z" />
        <path d="M32.6666 55.3925H30.3332V57.7259H32.6666V55.3925Z" />
        <path d="M12.833 13.3918H10.4996V15.7252H12.833V13.3918Z" />
        <path d="M12.833 18.0587H10.4996V20.3921H12.833V18.0587Z" />
        <path d="M15.1663 15.7252H12.8329V18.0586H15.1663V15.7252Z" />
        <path d="M10.4996 15.7252H8.1662V18.0586H10.4996V15.7252Z" />
        <path d="M54.0635 30.9738C53.4348 30.1256 52.5119 29.5797 51.4642 29.4326C50.4119 29.2833 49.3735 29.5597 48.5335 30.2026L45.7952 32.3014L45.794 32.3026L41.6429 35.4025L38.6725 34.2194C43.9692 31.8429 47.6712 26.545 47.6712 20.3942C47.6712 12.0314 40.8402 5.22736 32.4436 5.22736C24.047 5.22736 17.2162 12.0314 17.2162 20.3942C17.2162 23.4253 18.1226 26.2439 19.6662 28.6158L13.6204 28.5633C13.6169 28.5633 13.6134 28.5633 13.6099 28.5633C13.5912 28.5633 13.5761 28.5726 13.5586 28.5738C13.4431 28.5785 13.3299 28.6018 13.2191 28.6415C13.1911 28.652 13.162 28.6579 13.1352 28.6706C13.1212 28.6765 13.1072 28.6776 13.0932 28.6846L6.02078 32.1764C6.01955 32.1764 6.01846 32.1764 6.01846 32.1775L1.87663 34.1693C1.8311 34.1891 1.78448 34.2159 1.73895 34.2462C0.0880496 35.3452 -0.474284 37.5036 0.429989 39.2676C0.911793 40.2056 1.73198 40.8963 2.74003 41.2124C3.12859 41.3337 3.52521 41.3933 3.91952 41.3933C4.55308 41.3933 5.18077 41.2381 5.75582 40.9313L8.79157 39.3167L13.7441 36.7593L16.7122 36.7418L4.80848 48.5884C4.80738 48.5896 4.80615 48.5896 4.80492 48.5907L1.8765 51.5074C1.18469 52.1958 0.80433 53.1092 0.80433 54.0835C0.80433 55.0565 1.18469 55.9723 1.8765 56.6619C2.58703 57.3689 3.52152 57.7235 4.45601 57.7235C5.39173 57.7235 6.32498 57.3689 7.03785 56.6619L9.91254 53.7988L13.7206 50.9556L15.6912 52.9179L11.8376 56.7551C11.8365 56.7564 11.8352 56.7564 11.834 56.7575L8.90559 59.6741C8.21378 60.3625 7.83343 61.2759 7.83343 62.2502C7.83343 63.2233 8.21378 64.139 8.90559 64.8286C9.61613 65.5356 10.5518 65.8903 11.4863 65.8903C12.4208 65.8903 13.3565 65.5356 14.0682 64.8286L16.9977 61.912L21.6842 57.2453C21.6854 57.244 21.6854 57.2429 21.6865 57.2417L23.8951 55.0542L23.8869 55.046C23.9009 55.032 23.9207 55.0272 23.9348 55.0122L35.2353 42.6349L42.8281 43.7152C42.8829 43.7234 42.9377 43.7269 42.9926 43.7269C43.1338 43.7269 43.2703 43.6931 43.4021 43.6429C43.4406 43.629 43.4744 43.6102 43.5106 43.5916C43.5526 43.5706 43.5969 43.559 43.6367 43.5322L50.6659 38.8655C50.6916 38.848 50.7056 38.8199 50.73 38.8013C50.758 38.7792 50.7931 38.7699 50.8186 38.7453L53.5999 36.1401C55.0471 34.7841 55.2466 32.5628 54.0635 30.9738ZM4.66027 38.8722C4.28114 39.0752 3.85061 39.1159 3.43881 38.9854C3.03042 38.8582 2.69915 38.5793 2.50541 38.2025C2.15308 37.5164 2.35721 36.6811 2.97436 36.2296L5.84796 34.8471L6.53977 36.8689L6.8303 37.7182L4.66027 38.8722ZM12.3102 34.874L8.92336 36.6241L8.36459 34.9907L7.96331 33.8169L12.3968 31.6282L12.3102 34.874ZM45.3402 20.3919C45.3402 22.4009 44.8607 24.2957 44.03 25.9907L34.8832 21.8362C34.7875 20.5821 34.1366 19.4842 33.1589 18.8005L36.3615 8.16849C41.5626 9.82295 45.3402 14.6752 45.3402 20.3919ZM19.5519 20.3919C19.5519 13.3159 25.3363 7.55831 32.4461 7.55831C32.9991 7.55831 33.5404 7.60493 34.0759 7.67261L30.9434 18.0713C30.9014 18.0701 30.8617 18.0585 30.8185 18.0585C28.5598 18.0585 26.7222 19.8901 26.7222 22.1419C26.7222 24.3936 28.5598 26.2254 30.8185 26.2254C32.3375 26.2254 33.65 25.3866 34.3582 24.1591L42.8073 27.9975C40.4564 31.1615 36.6938 33.2255 32.4459 33.2255C25.3363 33.2255 19.5519 27.4679 19.5519 20.3919ZM32.5814 22.1419C32.5814 23.1068 31.7903 23.8919 30.8185 23.8919C29.8467 23.8919 29.0557 23.1068 29.0557 22.1419C29.0557 21.1771 29.8467 20.3919 30.8185 20.3919C31.7903 20.3919 32.5814 21.1771 32.5814 22.1419ZM5.39186 55.0074C4.87506 55.5196 4.03846 55.5185 3.52289 55.0087C3.27433 54.7601 3.13788 54.4324 3.13788 54.0835C3.13788 53.7358 3.27433 53.4079 3.52289 53.1618L5.62743 51.0652L7.48944 52.9191L5.39186 55.0074ZM12.4222 63.1743C11.9054 63.6865 11.0677 63.6877 10.552 63.1755C10.3034 62.927 10.167 62.5993 10.167 62.2503C10.167 61.9027 10.3034 61.5748 10.552 61.3287L12.6579 59.231L13.5388 60.1073L14.5211 61.0849L12.4222 63.1743ZM20.0384 55.5862C20.0371 55.5873 20.036 55.5873 20.0348 55.5885L16.1742 59.4385L15.2933 58.5623L14.311 57.5846L18.168 53.7451C18.168 53.7451 18.168 53.7451 18.168 53.744C18.1693 53.7428 18.1703 53.7428 18.1716 53.7417C18.2591 53.6542 18.3139 53.5492 18.3676 53.4454C18.3828 53.415 18.4119 53.3893 18.4248 53.3579C18.461 53.2681 18.4668 53.1713 18.4808 53.0767C18.4878 53.0229 18.5112 52.9729 18.5112 52.9179C18.5112 52.8397 18.4832 52.764 18.4669 52.6869C18.4529 52.6169 18.4529 52.5456 18.426 52.4781C18.3817 52.3684 18.3058 52.2716 18.2265 52.177C18.2044 52.1513 18.1962 52.1186 18.1717 52.0942C18.1717 52.0942 18.1717 52.0942 18.1705 52.0942C18.1693 52.0931 18.1693 52.0906 18.1682 52.0895L14.6529 48.5895C14.6156 48.5521 14.5678 48.537 14.5258 48.5055C14.464 48.4577 14.4045 48.4134 14.3356 48.3795C14.2692 48.3468 14.2015 48.327 14.1315 48.3082C14.0568 48.2872 13.9845 48.2709 13.9063 48.265C13.8351 48.2604 13.7686 48.2674 13.6975 48.2756C13.6193 48.2849 13.5459 48.2954 13.47 48.3199C13.3965 48.3432 13.3312 48.3793 13.2636 48.4179C13.2204 48.4424 13.1714 48.4506 13.1305 48.4809L9.25136 51.3767L7.2808 49.4143L12.5286 44.1946L22.0674 53.576L20.0384 55.5862ZM34.9545 40.2372C34.9207 40.2325 34.8891 40.2454 34.8554 40.2431C34.7702 40.2384 34.6886 40.2443 34.6034 40.2582C34.5369 40.2699 34.4739 40.2827 34.4109 40.3049C34.3362 40.3306 34.2686 40.3656 34.1996 40.4075C34.1343 40.4472 34.0748 40.4892 34.0177 40.5417C33.9896 40.5661 33.9559 40.5779 33.9302 40.6058L23.6527 51.862L14.1851 42.5506L20.3825 36.3859C20.8387 35.9309 20.8411 35.1923 20.386 34.735C20.1562 34.5052 19.8541 34.392 19.5519 34.3932V34.3921L14.6985 34.4212L14.7592 30.9049L21.5493 30.9633C24.3166 33.7937 28.176 35.5589 32.4461 35.5589C33.4027 35.5589 34.3361 35.4598 35.2449 35.2905C35.3324 35.3605 35.4186 35.4317 35.5284 35.476L40.7996 37.5761L41.1332 39.235L41.5228 41.1717L34.9545 40.2372ZM43.7944 40.6269L43.1096 37.2189L46.2736 34.8564L47.102 35.9554L48.3445 37.605L43.7944 40.6269ZM52.0055 34.4341L50.1726 36.1514L48.1356 33.4471L49.9544 32.0529C50.2939 31.7917 50.7221 31.6854 51.1421 31.7403C51.5644 31.7997 51.9378 32.0203 52.1921 32.3621C52.6659 33.0003 52.5853 33.8905 52.0055 34.4341Z" />
        <path d="M29.7545 40.5651L25.0668 35.8984C24.613 35.4446 23.8755 35.4446 23.4205 35.8984L18.734 40.5651C18.5147 40.7856 18.391 41.0819 18.391 41.3922C18.391 41.7026 18.5135 42.0001 18.734 42.2194L23.4205 46.8861C23.648 47.1124 23.9468 47.2256 24.2443 47.2256C24.5418 47.2256 24.8404 47.1124 25.0668 46.8861L29.7545 42.2194C29.9738 42.0001 30.0987 41.7026 30.0987 41.3922C30.0987 41.0819 29.9749 40.7844 29.7545 40.5651ZM24.2443 44.4128L21.2109 41.3922L24.2443 38.3717L27.2788 41.3922L24.2443 44.4128Z"/>
        <path d="M37.5468 11.0923L36.9833 13.358C37.1385 13.3966 40.7844 14.3462 40.7844 18.0586H43.1178C43.1177 13.6461 39.4742 11.5718 37.5468 11.0923Z" />
        <path d="M43.1178 20.3919H40.7844V22.7253H43.1178V20.3919Z"/>
        </g>
        <defs>
        <clipPath id="clip0_1_365">
        <rect width="70" height="70" />
        </clipPath>
        </defs>
    </g>

    </symbol>
    <symbol id="astro" viewBox="0 0 70 70">
        <g> 
            <g clip-path="url(#clip0_1_354)">
            <path d="M32.6496 32.7351H34.9817V43.2296H32.6496V32.7351Z"/>
            <path d="M41.978 37.3993H44.3101V43.2296H41.978V37.3993Z"/>
            <path d="M23.3211 40.8975H25.6532V43.2296H23.3211V40.8975Z"/>
            <path d="M16.3248 39.7314H18.6569V43.2295H16.3248V39.7314Z"/>
            <path d="M3.49817 61.8865H59.4689C61.4007 61.8865 62.967 60.3202 62.967 58.3883V53.7241C62.967 51.7923 61.4007 50.2259 59.4689 50.2259H58.3028V21.1469L64.9262 14.8725C66.4635 15.6303 68.3242 15.1702 69.3302 13.7816C70.3369 12.3935 70.1957 10.4821 68.9966 9.25684C67.7975 8.03157 65.8901 7.8488 64.4798 8.82412C63.0701 9.80001 62.569 11.6499 63.2933 13.2037L58.3028 17.9345V15.2443C58.3028 13.3124 56.7365 11.7461 54.8046 11.7461H8.16239C6.23054 11.7461 4.66422 13.3124 4.66422 15.2443V50.2259H3.49817C1.56632 50.2259 0 51.7923 0 53.7241V58.3883C0 60.3202 1.56632 61.8865 3.49817 61.8865ZM66.4652 10.58C67.1091 10.58 67.6312 11.1021 67.6312 11.7461C67.6312 12.39 67.1091 12.9121 66.4652 12.9121C65.8212 12.9121 65.2991 12.39 65.2991 11.7461C65.2991 11.1021 65.8212 10.58 66.4652 10.58ZM6.99634 15.2443C6.99634 14.6003 7.51844 14.0782 8.16239 14.0782H54.8046C55.4486 14.0782 55.9707 14.6003 55.9707 15.2443V20.1414L53.6386 22.3573V17.5764C53.6386 16.9324 53.1165 16.4103 52.4725 16.4103H10.4945C9.85055 16.4103 9.32845 16.9324 9.32845 17.5764V46.7278C9.32845 47.3717 9.85055 47.8938 10.4945 47.8938H52.4725C53.1165 47.8938 53.6386 47.3717 53.6386 46.7278V25.5651L55.9707 23.3554V50.2259H6.99634V15.2443ZM17.4908 30.403C15.9131 30.3984 14.5279 31.4495 14.1083 32.9703C13.6886 34.491 14.3383 36.104 15.6951 36.9091C17.0513 37.7142 18.7793 37.5121 19.9129 36.4149L23.9662 38.4487C24.4371 38.6844 25.0081 38.5739 25.3583 38.1805L33.9745 28.4871L42.4443 34.8338C42.8987 35.1743 43.5329 35.1378 43.9452 34.7478L51.3065 27.7748V45.5617H11.6606V18.7424H51.3065V24.5619L43.0564 32.3747L34.5154 25.9716C34.0303 25.6084 33.3476 25.6767 32.9445 26.1294L24.2099 35.9571L20.9446 34.3242C20.9685 34.1841 20.9833 34.0429 20.989 33.9012C20.989 31.9693 19.4227 30.403 17.4908 30.403ZM18.6569 33.9012C18.6569 34.5451 18.1348 35.0672 17.4908 35.0672C16.8469 35.0672 16.3248 34.5451 16.3248 33.9012C16.3248 33.2572 16.8469 32.7351 17.4908 32.7351C18.1348 32.7351 18.6569 33.2572 18.6569 33.9012ZM25.6532 52.5581H37.3138V53.7241C37.3138 54.3681 36.7917 54.8902 36.1477 54.8902H26.8193C26.1753 54.8902 25.6532 54.3681 25.6532 53.7241V52.5581ZM2.33211 53.7241C2.33211 53.0802 2.85422 52.5581 3.49817 52.5581H23.3211V53.7241C23.3211 55.656 24.8874 57.2223 26.8193 57.2223H36.1477C38.0796 57.2223 39.6459 55.656 39.6459 53.7241V52.5581H59.4689C60.1128 52.5581 60.6349 53.0802 60.6349 53.7241V58.3883C60.6349 59.0323 60.1128 59.5544 59.4689 59.5544H3.49817C2.85422 59.5544 2.33211 59.0323 2.33211 58.3883V53.7241Z" />
            </g>
            <defs>
            <clipPath id="clip0_1_354">
            <rect width="70" height="70" fill="white"/>
            </clipPath>
            </defs>
        </g>
    </symbol>
    <symbol id="insta" viewBox="0 0 20 20">
        <g> 
            <g clip-path="url(#clip0_1_492)">
            <path d="M19.9804 5.88005C19.9336 4.81738 19.7617 4.0868 19.5156 3.45374C19.2616 2.78176 18.8709 2.18014 18.359 1.68002C17.8589 1.1721 17.2533 0.777435 16.5891 0.527447C15.9524 0.281274 15.2256 0.109427 14.163 0.0625732C13.0924 0.0117516 12.7525 0 10.0371 0C7.32173 0 6.98185 0.0117516 5.91521 0.0586052C4.85253 0.105459 4.12195 0.277459 3.48904 0.523479C2.81692 0.777435 2.2153 1.16814 1.71517 1.68002C1.20726 2.18014 0.812743 2.78573 0.562603 3.44992C0.31643 4.0868 0.144583 4.81341 0.0977294 5.87609C0.0469078 6.9467 0.0351562 7.28658 0.0351562 10.002C0.0351562 12.7173 0.0469078 13.0572 0.0937614 14.1239C0.140615 15.1865 0.312615 15.9171 0.558787 16.5502C0.812743 17.2221 1.20726 17.8238 1.71517 18.3239C2.2153 18.8318 2.82088 19.2265 3.48508 19.4765C4.12195 19.7226 4.84856 19.8945 5.91139 19.9413C6.97788 19.9883 7.31791 19.9999 10.0333 19.9999C12.7487 19.9999 13.0885 19.9883 14.1552 19.9413C15.2179 19.8945 15.9484 19.7226 16.5813 19.4765C17.9254 18.9568 18.9881 17.8941 19.5078 16.5502C19.7538 15.9133 19.9258 15.1865 19.9727 14.1239C20.0195 13.0572 20.0313 12.7173 20.0313 10.002C20.0313 7.28658 20.0273 6.9467 19.9804 5.88005ZM18.1794 14.0457C18.1364 15.0225 17.9723 15.5499 17.8356 15.9015C17.4995 16.7728 16.808 17.4643 15.9367 17.8004C15.5851 17.9372 15.0538 18.1012 14.0809 18.1441C13.026 18.1911 12.7096 18.2027 10.0411 18.2027C7.37255 18.2027 7.05221 18.1911 6.00113 18.1441C5.02438 18.1012 4.49693 17.9372 4.1453 17.8004C3.71171 17.6402 3.31704 17.3862 2.9967 17.0541C2.6646 16.7298 2.41065 16.3391 2.2504 15.9055C2.11365 15.5539 1.94959 15.0225 1.90671 14.0497C1.8597 12.9948 1.8481 12.6783 1.8481 10.0097C1.8481 7.34122 1.8597 7.02087 1.90671 5.96995C1.94959 4.99319 2.11365 4.46575 2.2504 4.11412C2.41065 3.68038 2.6646 3.28586 3.00067 2.96536C3.32483 2.63327 3.71553 2.37931 4.14927 2.21921C4.5009 2.08247 5.03231 1.9184 6.0051 1.87537C7.05999 1.82851 7.37652 1.81676 10.0449 1.81676C12.7174 1.81676 13.0337 1.82851 14.0848 1.87537C15.0616 1.9184 15.589 2.08247 15.9407 2.21921C16.3742 2.37931 16.7689 2.63327 17.0893 2.96536C17.4213 3.28967 17.6753 3.68038 17.8356 4.11412C17.9723 4.46575 18.1364 4.99701 18.1794 5.96995C18.2263 7.02484 18.238 7.34122 18.238 10.0097C18.238 12.6783 18.2263 12.9908 18.1794 14.0457Z"/>
            <path d="M10.0371 4.8642C7.20074 4.8642 4.89941 7.16537 4.89941 10.0019C4.89941 12.8385 7.20074 15.1396 10.0371 15.1396C12.8737 15.1396 15.1749 12.8385 15.1749 10.0019C15.1749 7.16537 12.8737 4.8642 10.0371 4.8642ZM10.0371 13.3346C8.19702 13.3346 6.70442 11.8422 6.70442 10.0019C6.70442 8.16165 8.19702 6.66921 10.0371 6.66921C11.8774 6.66921 13.3698 8.16165 13.3698 10.0019C13.3698 11.8422 11.8774 13.3346 10.0371 13.3346Z"/>
            <path d="M16.5775 4.6611C16.5775 5.32346 16.0404 5.86052 15.3779 5.86052C14.7155 5.86052 14.1785 5.32346 14.1785 4.6611C14.1785 3.99858 14.7155 3.46167 15.3779 3.46167C16.0404 3.46167 16.5775 3.99858 16.5775 4.6611Z"/>
            </g>
            <defs>
            <clipPath id="clip0_1_492">
            <rect width="20" height="20" fill="white"/>
            </clipPath>
            </defs>
        </g>
    </symbol>
    <symbol id="twitter" viewBox="0 0 20 20">
        <g>
            <path d="M20 3.79875C19.2563 4.125 18.4637 4.34125 17.6375 4.44625C18.4875 3.93875 19.1363 3.14125 19.4412 2.18C18.6488 2.6525 17.7738 2.98625 16.8412 3.1725C16.0887 2.37125 15.0162 1.875 13.8462 1.875C11.5763 1.875 9.74875 3.7175 9.74875 5.97625C9.74875 6.30125 9.77625 6.61375 9.84375 6.91125C6.435 6.745 3.41875 5.11125 1.3925 2.6225C1.03875 3.23625 0.83125 3.93875 0.83125 4.695C0.83125 6.115 1.5625 7.37375 2.6525 8.1025C1.99375 8.09 1.3475 7.89875 0.8 7.5975C0.8 7.61 0.8 7.62625 0.8 7.6425C0.8 9.635 2.22125 11.29 4.085 11.6712C3.75125 11.7625 3.3875 11.8062 3.01 11.8062C2.7475 11.8062 2.4825 11.7913 2.23375 11.7362C2.765 13.36 4.2725 14.5538 6.065 14.5925C4.67 15.6838 2.89875 16.3412 0.98125 16.3412C0.645 16.3412 0.3225 16.3263 0 16.285C1.81625 17.4563 3.96875 18.125 6.29 18.125C13.835 18.125 17.96 11.875 17.96 6.4575C17.96 6.27625 17.9538 6.10125 17.945 5.9275C18.7588 5.35 19.4425 4.62875 20 3.79875Z" />
        </g>
    </symbol>
    <symbol id="facebook" viewBox="0 0 20 20">
        <g>
            <path d="M13.3308 3.32083H15.1567V0.140833C14.8417 0.0975 13.7583 0 12.4967 0C9.86416 0 8.06082 1.65583 8.06082 4.69917V7.5H5.15582V11.055H8.06082V20H11.6225V11.0558H14.41L14.8525 7.50083H11.6217V5.05167C11.6225 4.02417 11.8992 3.32083 13.3308 3.32083Z"/>
        </g>
    </symbol>
    <symbol id="linkedin" viewBox="0 0 20 20">
        <g> 
            <g clip-path="url(#clip0_1_476)">
            <path d="M19.995 20V19.9992H20V12.6642C20 9.07587 19.2275 6.31171 15.0325 6.31171C13.0158 6.31171 11.6625 7.41837 11.11 8.46754H11.0517V6.64671H7.07416V19.9992H11.2158V13.3875C11.2158 11.6467 11.5458 9.96337 13.7017 9.96337C15.8258 9.96337 15.8575 11.95 15.8575 13.4992V20H19.995Z"/>
            <path d="M0.330017 6.64746H4.47668V20H0.330017V6.64746Z"/>
            <path d="M2.40167 0C1.07583 0 0 1.07583 0 2.40167C0 3.7275 1.07583 4.82583 2.40167 4.82583C3.7275 4.82583 4.80333 3.7275 4.80333 2.40167C4.8025 1.07583 3.72667 0 2.40167 0V0Z"/>
            </g>
            <defs>
            <clipPath id="clip0_1_476">
            <rect width="20" height="20" fill="white"/>
            </clipPath>
            </defs>
        </g>
    </symbol>
    <symbol id="client_1" viewBox="0 0 41 47">
        <g>
            <path fill-rule="evenodd" clip-rule="evenodd" d="M6 0L13.0078 6.63413L0 6.62646V38.8137H34V26.507L41 33.1338V0H6ZM33.6924 25.7283L13.8226 6.91796H33.6924V25.7283ZM27.5231 34.1055H5.38008V12.4579H6.9453V32.6397H27.5231V34.1055ZM10.6089 43.0991L9.79102 44.7837L8.97314 43.0991H8.28711L9.48096 45.3452V46.6538H10.1011V45.3452L11.2925 43.0991H10.6089ZM11.6367 46.6538L11.9248 45.8262H13.3018L13.5923 46.6538H14.2368L12.8916 43.0991H12.3374L10.9946 46.6538H11.6367ZM12.6133 43.8535L13.1284 45.3281H12.0981L12.6133 43.8535ZM15.8701 45.2427C15.7806 45.3794 15.7358 45.5299 15.7358 45.6943C15.7358 45.9938 15.8408 46.2371 16.0508 46.4243C16.2624 46.6099 16.5439 46.7026 16.8955 46.7026C17.2471 46.7026 17.5498 46.6074 17.8037 46.417L18.0039 46.6538H18.6924L18.1699 46.0361C18.375 45.7562 18.4775 45.3973 18.4775 44.9595H17.9624C17.9624 45.1987 17.9128 45.416 17.8135 45.6113L17.1274 44.8008L17.3691 44.625C17.54 44.5013 17.6629 44.3776 17.7378 44.2539C17.8127 44.1286 17.8501 43.9919 17.8501 43.8438C17.8501 43.6191 17.7671 43.4312 17.6011 43.2798C17.4367 43.1268 17.2251 43.0503 16.9663 43.0503C16.6798 43.0503 16.452 43.1317 16.2827 43.2944C16.1134 43.4556 16.0288 43.6753 16.0288 43.9536C16.0288 44.0675 16.0557 44.1855 16.1094 44.3076C16.1647 44.4297 16.2616 44.5778 16.3999 44.752C16.1362 44.9408 15.9596 45.1043 15.8701 45.2427ZM17.4741 46.0288C17.3 46.1623 17.1128 46.229 16.9126 46.229C16.7352 46.229 16.5936 46.1777 16.4878 46.0752C16.382 45.9727 16.3291 45.8392 16.3291 45.6748C16.3291 45.4844 16.4268 45.3151 16.6221 45.167L16.6978 45.1133L17.4741 46.0288ZM16.8369 44.4541C16.6693 44.2474 16.5854 44.0757 16.5854 43.939C16.5854 43.8201 16.6196 43.7217 16.688 43.6436C16.7563 43.5654 16.8483 43.5264 16.9639 43.5264C17.0713 43.5264 17.16 43.5597 17.23 43.6265C17.3 43.6916 17.335 43.7705 17.335 43.8633C17.335 44.0033 17.2845 44.118 17.1836 44.2075L17.1079 44.2686L16.8369 44.4541ZM22.623 46.3853C22.8672 46.172 23.0072 45.8758 23.043 45.4966H22.4277C22.3952 45.7505 22.3179 45.932 22.1958 46.041C22.0737 46.1501 21.8914 46.2046 21.6489 46.2046C21.3836 46.2046 21.1818 46.1037 21.0435 45.9019C20.9067 45.7 20.8384 45.4071 20.8384 45.0229V44.708C20.8416 44.3288 20.9149 44.0415 21.0581 43.8462C21.203 43.6493 21.4097 43.5508 21.6782 43.5508C21.9093 43.5508 22.0843 43.6077 22.2031 43.7217C22.3236 43.834 22.3984 44.0179 22.4277 44.2734H23.043C23.0039 43.8844 22.8647 43.5833 22.6255 43.3701C22.3862 43.1569 22.0705 43.0503 21.6782 43.0503C21.3869 43.0503 21.1297 43.1195 20.9067 43.2578C20.6854 43.3962 20.5153 43.5931 20.3965 43.8486C20.2777 44.1042 20.2183 44.3996 20.2183 44.7349V45.0669C20.2231 45.394 20.2842 45.6813 20.4014 45.9287C20.5186 46.1761 20.6846 46.3674 20.8994 46.5024C21.1159 46.6359 21.3657 46.7026 21.6489 46.7026C22.0542 46.7026 22.3789 46.5968 22.623 46.3853ZM26.2534 45.8872C26.3739 45.6235 26.4341 45.3175 26.4341 44.9692V44.7715C26.4325 44.4248 26.3706 44.1213 26.2485 43.8608C26.1265 43.5988 25.9531 43.3986 25.7285 43.2603C25.5055 43.1203 25.2492 43.0503 24.9595 43.0503C24.6698 43.0503 24.4126 43.1211 24.188 43.2627C23.965 43.4027 23.7917 43.6053 23.668 43.8706C23.5459 44.1359 23.4849 44.4419 23.4849 44.7886V44.9888C23.4865 45.3289 23.5483 45.6292 23.6704 45.8896C23.7941 46.1501 23.9683 46.3511 24.1929 46.4927C24.4191 46.6326 24.6763 46.7026 24.9644 46.7026C25.2557 46.7026 25.5129 46.6326 25.7358 46.4927C25.9604 46.3511 26.133 46.1493 26.2534 45.8872ZM25.5918 43.8779C25.7415 44.0879 25.8164 44.3898 25.8164 44.7837V44.9692C25.8164 45.3696 25.7423 45.674 25.5942 45.8823C25.4478 46.0907 25.2378 46.1948 24.9644 46.1948C24.6942 46.1948 24.4826 46.0882 24.3296 45.875C24.1782 45.6618 24.1025 45.3599 24.1025 44.9692V44.7642C24.1058 44.3817 24.1823 44.0863 24.332 43.8779C24.4834 43.668 24.6925 43.563 24.9595 43.563C25.2329 43.563 25.4437 43.668 25.5918 43.8779Z"/>
        </g>

    </symbol>
    <symbol id="client_2" viewBox="0 0 40 52">
        <g>
            <path fill-rule="evenodd" clip-rule="evenodd" d="M17.1136 2.93452H16.977C16.7671 2.92181 16.5571 2.91672 16.3471 2.91163H16.3471H16.3269H15.8918C15.4946 2.91163 15.0898 2.92181 14.6876 2.94215C14.6573 2.93994 14.6269 2.93994 14.5966 2.94215C10.9522 3.14863 7.38171 4.05951 4.08049 5.62492L3.6479 5.83344V27.9746L4.65979 27.6313C5.54773 27.3261 6.49384 27.0515 7.47285 26.7972C10.1193 26.1178 12.8367 25.7567 15.568 25.7216V28.6306C15.2062 28.6332 14.8546 28.6434 14.503 28.6612H14.4195C12.3175 28.7765 10.2317 29.0967 8.19129 29.6173C5.60716 30.2643 3.11433 31.2357 0.771606 32.5086V4.11189C3.20469 2.69275 5.82533 1.62687 8.55557 0.945963C10.9527 0.327052 13.4169 0.00930695 15.8918 0H16.3193C16.8303 0.0127146 17.3287 0.0356008 17.7967 0.0712015C19.0297 0.157776 20.2528 0.352628 21.4521 0.653528V3.51685C20.2874 3.24551 19.1032 3.06695 17.9105 2.98284C17.8863 2.98079 17.8621 2.97872 17.8379 2.97666C17.5911 2.95561 17.344 2.93452 17.1136 2.93452ZM22.1528 5.86138C22.7877 5.9097 23.4455 5.93259 24.1108 5.93259C26.7125 5.92307 29.3031 5.59083 31.8239 4.94339C34.4068 4.29396 36.8986 3.32178 39.2411 2.04956V29.9402C36.8067 31.3585 34.1853 32.4243 31.4546 33.1061C29.0571 33.7227 26.5931 34.0395 24.1184 34.0496C22.2433 34.0647 20.3737 33.8443 18.553 33.3935V5.32229C18.983 5.42146 19.4257 5.51301 19.876 5.58929C20.6147 5.7139 21.3939 5.80544 22.1528 5.86138ZM36.3471 6.07753L35.3352 6.41828C34.4042 6.73106 33.4657 7.01078 32.5221 7.25998C29.7749 7.96596 26.9514 8.3281 24.1158 8.33818C23.4556 8.33818 22.8485 8.32038 22.2616 8.28224L21.4546 8.22883V28.3178V31.0057L22.1477 31.0667C22.7903 31.1227 23.4531 31.1506 24.1209 31.1506C26.3544 31.1412 28.5781 30.8533 30.7412 30.2937C32.5223 29.8469 34.2552 29.2243 35.9145 28.4348L36.3471 28.2263V6.07753Z"/>
            <path d="M2.73713 42.2124C2.59166 42.0615 2.41629 41.943 2.22236 41.8646C2.02844 41.7862 1.82029 41.7496 1.61141 41.7572C1.38879 41.7542 1.16781 41.7957 0.961267 41.8793C0.771901 41.9547 0.599767 42.068 0.455322 42.2124C0.312451 42.3572 0.201292 42.5304 0.128988 42.721C0.0496792 42.9207 0.0101425 43.1341 0.0126205 43.3491V47.1431C0.00357283 47.4104 0.0545882 47.6764 0.161874 47.9212C0.251433 48.1156 0.380725 48.2889 0.541333 48.4298C0.692953 48.5575 0.870978 48.6495 1.06246 48.6994C1.24694 48.7512 1.43755 48.7777 1.62911 48.7782C1.84041 48.7803 2.04953 48.7351 2.24131 48.646C2.43095 48.563 2.60277 48.4438 2.74725 48.295C2.88814 48.1476 3.00052 47.9752 3.07865 47.7864C3.15973 47.5951 3.20105 47.3892 3.20007 47.1812V46.7566H2.20842V47.0948C2.21137 47.2103 2.1916 47.3252 2.15024 47.433C2.11794 47.5137 2.06877 47.5866 2.00604 47.6466C1.94461 47.6962 1.87416 47.7334 1.79861 47.7559C1.73164 47.7782 1.6617 47.7902 1.59117 47.7915C1.50263 47.8018 1.41296 47.7885 1.33122 47.7527C1.24948 47.717 1.17858 47.6602 1.1257 47.5881C1.03222 47.4356 0.986395 47.2585 0.994154 47.0795V43.5423C0.988002 43.3462 1.02969 43.1515 1.11558 42.9753C1.16706 42.8952 1.2399 42.8313 1.32578 42.7908C1.41166 42.7503 1.50713 42.7349 1.60129 42.7464C1.68676 42.7434 1.7717 42.7612 1.8488 42.7984C1.92591 42.8356 1.99289 42.8911 2.04399 42.96C2.15496 43.1057 2.21298 43.2852 2.20842 43.4686V43.7966H3.18995V43.4101C3.19195 43.1831 3.15073 42.9578 3.06853 42.7464C2.99527 42.5476 2.88251 42.3659 2.73713 42.2124Z"/>
            <path d="M8.62892 42.1691C8.31271 41.9021 7.91362 41.7546 7.50066 41.7521C7.29868 41.7529 7.09838 41.7891 6.9087 41.8589C6.71613 41.9279 6.53841 42.0332 6.38505 42.1691C6.22076 42.3168 6.08968 42.498 6.00053 42.7006C5.90063 42.9323 5.85146 43.183 5.85634 43.4355V47.0744C5.8495 47.3304 5.89873 47.5847 6.00053 47.8195C6.09028 48.0151 6.22152 48.1887 6.38505 48.328C6.53665 48.4688 6.71468 48.5777 6.9087 48.6485C7.09838 48.7183 7.29868 48.7544 7.50066 48.7553C7.70269 48.7549 7.90307 48.7187 8.09262 48.6485C8.28995 48.5767 8.47195 48.468 8.62892 48.328C8.7871 48.1861 8.91454 48.013 9.00332 47.8195C9.10512 47.5847 9.15435 47.3304 9.14751 47.0744V43.4355C9.15239 43.183 9.10322 42.9323 9.00332 42.7006C8.91505 42.5001 8.78775 42.3194 8.62892 42.1691ZM8.16598 47.0744C8.17434 47.1714 8.16095 47.269 8.1268 47.3601C8.09265 47.4512 8.03861 47.5334 7.96866 47.6008C7.83768 47.7106 7.67251 47.7708 7.50193 47.7708C7.33135 47.7708 7.16617 47.7106 7.03519 47.6008C6.96524 47.5334 6.9112 47.4512 6.87705 47.3601C6.8429 47.269 6.82952 47.1714 6.83787 47.0744V43.4355C6.82952 43.3385 6.8429 43.2409 6.87705 43.1498C6.9112 43.0587 6.96524 42.9764 7.03519 42.9091C7.16617 42.7993 7.33135 42.7391 7.50193 42.7391C7.67251 42.7391 7.83768 42.7993 7.96866 42.9091C8.03861 42.9764 8.09265 43.0587 8.1268 43.1498C8.16095 43.2409 8.17434 43.3385 8.16598 43.4355V47.0744Z"/>
            <path d="M16.3673 48.6994V41.8107H15.4136L14.1614 45.4572H14.1437L12.8813 41.8107H11.9377V48.6994H12.9218V44.5087H12.9395L13.9033 47.4712H14.3941L15.3655 44.5087H15.3832V48.6994H16.3673Z"/>
            <path d="M21.9581 42.2937C21.8065 42.1237 21.6153 41.9943 21.4015 41.9173C21.1712 41.8424 20.9302 41.8063 20.6881 41.8105H19.226V48.6993H20.2075V46.0089H20.7134C21.0197 46.0228 21.3244 45.958 21.5988 45.8207C21.822 45.6968 22.0081 45.515 22.1377 45.2943C22.2512 45.1111 22.3277 44.9071 22.3628 44.6942C22.4014 44.435 22.4192 44.173 22.4159 43.911C22.4255 43.5802 22.3932 43.2495 22.3198 42.9269C22.2543 42.6885 22.1299 42.4706 21.9581 42.2937ZM21.4521 44.3941C21.4479 44.5188 21.4168 44.6412 21.361 44.7527C21.3049 44.8586 21.2162 44.9434 21.1081 44.9942C20.9627 45.0593 20.8041 45.0889 20.6451 45.0807H20.1974V42.7387H20.7033C20.8557 42.7312 21.0075 42.7609 21.146 42.8251C21.2475 42.8834 21.3281 42.9724 21.3762 43.0794C21.4299 43.2004 21.4591 43.331 21.4622 43.4634C21.4622 43.6084 21.4622 43.7609 21.4622 43.9211C21.4622 44.0813 21.4723 44.2466 21.4622 44.3941H21.4521Z" />
            <path d="M26.6077 41.8107H25.8032L24.2854 48.6994H25.2669L25.5553 47.2194H26.8935L27.1819 48.6994H28.1635L26.6077 41.8107ZM25.702 46.2811L26.1852 43.784H26.2029L26.6836 46.2811H25.702Z"/>
            <path d="M32.9497 45.9607H32.932L31.4496 41.8107H30.506V48.6994H31.4875V44.557H31.5078L33.0079 48.6994H33.9312V41.8107H32.9497V45.9607Z"/>
            <path d="M38.9476 41.8107L38.1583 44.5494H38.1381L37.3488 41.8107H36.3091L37.6574 45.7878V48.6994H38.639V45.7878L39.9873 41.8107H38.9476Z"/>
            <path d="M0 50.6445H0.473058V51.9719H0.794333V50.6445H1.26486V50.3724H0V50.6445Z"/>
            <path d="M3.97672 50.3724L3.35693 51.9719H3.69845L3.82999 51.6083H4.46748L4.60409 51.9719H4.95319L4.31823 50.3724H3.97672ZM3.92612 51.3387L4.14368 50.7462L4.36123 51.3387H3.92612Z"/>
            <path d="M7.90793 51.3821H8.27727V51.5881C8.16941 51.6746 8.03576 51.722 7.89781 51.7229C7.8333 51.7265 7.76886 51.7145 7.70988 51.688C7.65091 51.6614 7.59911 51.6211 7.55883 51.5703C7.47402 51.4485 7.43217 51.3017 7.43993 51.1533C7.43993 50.7973 7.59424 50.6193 7.90034 50.6193C7.98091 50.6112 8.06168 50.6325 8.12804 50.6791C8.19439 50.7257 8.24194 50.7947 8.26209 50.8735L8.57831 50.8125C8.51001 50.4997 8.28486 50.3421 7.90034 50.3421C7.69468 50.3366 7.4947 50.4103 7.34127 50.5481C7.26069 50.6276 7.19834 50.7239 7.15858 50.8302C7.11882 50.9365 7.10261 51.0502 7.11107 51.1634C7.10175 51.3823 7.17493 51.5966 7.31598 51.7636C7.39434 51.8444 7.4892 51.9071 7.59401 51.9475C7.69883 51.9879 7.8111 52.0049 7.92311 51.9975C8.17338 52.0045 8.41652 51.9133 8.60108 51.7432V51.1126H7.90793V51.3821Z"/>
            <path d="M11.9226 50.3724H11.5988V51.9719H12.7194V51.6998H11.9226V50.3724Z"/>
            <path d="M15.3175 50.3724H14.9937V51.9719H15.3175V50.3724Z"/>
            <path d="M18.6365 51.4405L17.9813 50.3724H17.6676V51.9719H17.9686V50.9268L18.6112 51.9719H18.9325V50.3724H18.6365V51.4405Z"/>
            <path d="M21.6368 51.2675H22.4337V50.9954H21.6368V50.6445H22.4944V50.3724H21.313V51.9719H22.5273V51.6998H21.6368V51.2675Z"/>
            <path d="M28.9122 51.0031H28.2823V50.3724H27.9611V51.9719H28.2823V51.2726H28.9122V51.9719H29.2335V50.3724H28.9122V51.0031Z"/>
            <path d="M31.9302 51.2675H32.7296V50.9954H31.9302V50.6445H32.7903V50.3724H31.6089V51.9719H32.8206V51.6998H31.9302V51.2675Z"/>
            <path d="M36.0233 51.2676C36.3015 51.2244 36.4432 51.0769 36.4432 50.8226C36.4513 50.7546 36.441 50.6856 36.4134 50.623C36.3858 50.5603 36.3419 50.5063 36.2863 50.4666C36.1415 50.3938 35.9799 50.3614 35.8183 50.3725H35.1404V51.972H35.4617V51.3032H35.5249C35.5934 51.299 35.6619 51.3112 35.7247 51.3388C35.7717 51.3678 35.8108 51.4079 35.8386 51.4558L36.1877 51.9644H36.5722L36.3774 51.6516C36.2913 51.4972 36.1699 51.3656 36.0233 51.2676ZM35.6994 51.0464H35.4617V50.6446H35.7146C35.8248 50.6357 35.9357 50.6486 36.041 50.6827C36.0644 50.7034 36.0828 50.7291 36.095 50.7579C36.1072 50.7867 36.1127 50.8179 36.1113 50.8492C36.1098 50.8804 36.1014 50.911 36.0866 50.9385C36.0718 50.966 36.051 50.9899 36.0258 51.0082C35.9202 51.0406 35.8096 51.0535 35.6994 51.0464Z"/>
            <path d="M39.1096 51.2675H39.9064V50.9954H39.1096V50.6445H39.9697V50.3724H38.7858V51.9719H40V51.6998H39.1096V51.2675Z"/>
        </g>

    </symbol>
    <symbol id="client_3" viewBox="0 0 44 42">
        <g>
            <path d="M6.72622 40.4015C6.74214 40.4019 6.75781 40.405 6.77232 40.4107C6.78683 40.4164 6.79989 40.4245 6.81074 40.4346L7.02886 40.6431C6.85956 40.8119 6.6503 40.9468 6.41541 41.0388C6.14034 41.1391 5.84389 41.1876 5.54566 41.181C5.26543 41.186 4.987 41.1408 4.72772 41.0483C4.49384 40.9633 4.2837 40.8356 4.11154 40.6739C3.93583 40.5062 3.80049 40.3097 3.71347 40.0958C3.61818 39.8575 3.57114 39.6066 3.57442 39.3543C3.57056 39.1003 3.62142 38.848 3.72438 38.6103C3.81963 38.3951 3.96329 38.1986 4.14698 38.0322C4.33316 37.8691 4.55587 37.7409 4.80134 37.6555C5.06987 37.5651 5.35583 37.52 5.64382 37.5229C5.91133 37.5172 6.17742 37.5583 6.42631 37.6437C6.64225 37.7251 6.84052 37.8381 7.0125 37.9777L6.82983 38.2005C6.81721 38.2161 6.80152 38.2298 6.78348 38.2407C6.76193 38.2536 6.73588 38.2594 6.70986 38.2573C6.68157 38.2556 6.65429 38.2474 6.6308 38.2336L6.53264 38.1744L6.39632 38.0986C6.33747 38.0704 6.27643 38.0459 6.21365 38.0251C6.13278 38 6.04984 37.9802 5.96554 37.9659C5.85854 37.9488 5.74987 37.9408 5.64109 37.9422C5.43371 37.9399 5.22791 37.9738 5.03581 38.0417C4.85666 38.1046 4.69495 38.1999 4.56141 38.3213C4.42545 38.4504 4.32069 38.6018 4.25332 38.7667C4.17653 38.9553 4.13868 39.1542 4.14153 39.3543C4.13825 39.5574 4.17609 39.7595 4.25332 39.9513C4.31985 40.1148 4.42267 40.2653 4.55595 40.3944C4.68083 40.5147 4.83561 40.6087 5.00855 40.6692C5.18652 40.7333 5.37755 40.7655 5.5702 40.764C5.68148 40.7655 5.79272 40.7591 5.90283 40.745C6.08262 40.7259 6.25508 40.6717 6.40723 40.5863C6.48354 40.5425 6.55558 40.4934 6.62262 40.4394C6.65064 40.4162 6.68751 40.4027 6.72622 40.4015Z"/>
            <path d="M13.0243 39.3539C13.0277 39.6052 12.9778 39.855 12.8771 40.0906C12.7882 40.3044 12.6483 40.4994 12.4664 40.6627C12.2845 40.826 12.0649 40.954 11.822 41.0383C11.2882 41.2152 10.6981 41.2152 10.1643 41.0383C9.92292 40.9527 9.70471 40.8245 9.52357 40.6616C9.34182 40.4953 9.20083 40.2986 9.10916 40.0835C8.91275 39.6064 8.91275 39.0848 9.10916 38.6076C9.20216 38.3924 9.34298 38.1952 9.52357 38.0272C9.70624 37.8694 9.92434 37.746 10.1643 37.6647C10.6974 37.4846 11.2888 37.4846 11.822 37.6647C12.0642 37.7502 12.2833 37.8785 12.4654 38.0414C12.6449 38.2061 12.7848 38.4002 12.8771 38.6123C12.9781 38.8496 13.028 39.1009 13.0243 39.3539ZM12.4518 39.3539C12.4561 39.1528 12.421 38.9525 12.3482 38.7616C12.2871 38.598 12.1878 38.4472 12.0564 38.3186C11.9286 38.1969 11.7712 38.1014 11.5957 38.039C11.2078 37.9095 10.7784 37.9095 10.3906 38.039C10.215 38.1014 10.0576 38.1969 9.92981 38.3186C9.79667 38.4465 9.6963 38.5975 9.63536 38.7616C9.49664 39.1472 9.49664 39.5605 9.63536 39.9461C9.6969 40.11 9.7972 40.2609 9.92981 40.3891C10.0578 40.5101 10.2152 40.6048 10.3906 40.6663C10.7791 40.7926 11.2071 40.7926 11.5957 40.6663C11.771 40.6048 11.9284 40.5101 12.0564 40.3891C12.1872 40.2601 12.2864 40.1094 12.3482 39.9461C12.4213 39.7553 12.4564 39.555 12.4518 39.3539Z"/>
            <path d="M17.3213 39.9748L17.3785 40.1074C17.4003 40.06 17.4194 40.0174 17.4412 39.9748C17.462 39.9302 17.4857 39.8867 17.5121 39.8445L18.9053 37.6439C18.9326 37.606 18.9571 37.5823 18.9844 37.5752C19.0215 37.5654 19.0602 37.5614 19.0989 37.5634H19.5106V41.1426H19.0226V38.5109C19.0226 38.4777 19.0226 38.4398 19.0226 38.3995C19.0199 38.3585 19.0199 38.3174 19.0226 38.2764L17.6212 40.5077C17.6034 40.5411 17.5749 40.5694 17.5391 40.5892C17.5034 40.6089 17.4618 40.6193 17.4194 40.6191H17.3403C17.2979 40.6196 17.2562 40.6093 17.2204 40.5895C17.1845 40.5698 17.1561 40.5413 17.1386 40.5077L15.6963 38.2621C15.6963 38.3048 15.6963 38.3474 15.6963 38.3901C15.6963 38.4327 15.6963 38.4706 15.6963 38.5038V41.1354H15.2246V37.5634H15.6363C15.675 37.5614 15.7138 37.5654 15.7508 37.5752C15.7846 37.5898 15.8116 37.614 15.8272 37.6439L17.2504 39.8468C17.2783 39.8876 17.3021 39.9304 17.3213 39.9748Z"/>
            <path d="M22.5643 39.7969V41.1376H22.019V37.5632H23.235C23.4645 37.5594 23.6934 37.5857 23.9139 37.6414C24.0904 37.6849 24.254 37.7608 24.3937 37.8641C24.5148 37.9608 24.6082 38.0809 24.6664 38.2146C24.7307 38.3604 24.7622 38.5156 24.7591 38.6718C24.7615 38.8285 24.7272 38.9841 24.6582 39.1289C24.5927 39.2661 24.4919 39.3884 24.3637 39.4866C24.2239 39.5942 24.0594 39.6749 23.8812 39.7235C23.6689 39.7824 23.4469 39.8104 23.2241 39.8064L22.5643 39.7969ZM22.5643 39.4132H23.2241C23.3674 39.4148 23.5101 39.3964 23.6467 39.3587C23.7594 39.3258 23.8632 39.2734 23.952 39.2047C24.034 39.1392 24.0974 39.0581 24.1374 38.9679C24.1821 38.8724 24.2043 38.7701 24.2029 38.667C24.2092 38.5677 24.1906 38.4683 24.1482 38.3759C24.1058 38.2834 24.0407 38.2001 23.9575 38.1317C23.7492 37.9904 23.4876 37.922 23.2241 37.9399H22.5643V39.4132Z"/>
            <path d="M29.893 41.1424H29.4622C29.419 41.1439 29.3766 41.1321 29.3423 41.1093C29.3113 41.087 29.287 41.0585 29.2714 41.0264L28.9006 40.1617H27.0384L26.654 41.0264C26.6399 41.058 26.6163 41.0858 26.5858 41.1069C26.5512 41.1312 26.5076 41.1438 26.4631 41.1424H26.0323L27.6682 37.5629H28.2353L29.893 41.1424ZM27.1938 39.8134H28.7316L28.0827 38.3565C28.0331 38.2469 27.9921 38.1345 27.96 38.0201L27.8973 38.2072C27.8782 38.2641 27.8564 38.3162 27.8373 38.3589L27.1938 39.8134Z"/>
            <path d="M32.2487 37.5795C32.2813 37.5951 32.3093 37.6169 32.3305 37.6435L34.7162 40.3417C34.7162 40.2991 34.7162 40.2565 34.7162 40.2162C34.7162 40.1759 34.7162 40.1356 34.7162 40.0977V37.5629H35.2042V41.1425H34.9316C34.8929 41.1435 34.8545 41.1362 34.8198 41.1211C34.7861 41.1041 34.7565 41.0816 34.7325 41.0548L32.3496 38.3589C32.3522 38.3999 32.3522 38.4411 32.3496 38.4821C32.3496 38.5224 32.3496 38.5579 32.3496 38.5911V41.1425H31.8616V37.5629H32.1506C32.1843 37.5621 32.2178 37.5678 32.2487 37.5795Z"/>
            <path d="M39.223 39.7189V41.1402H38.6777V39.7189L37.17 37.5631H37.658C37.7001 37.5609 37.7416 37.5719 37.7753 37.5939C37.8049 37.6169 37.8298 37.6441 37.8489 37.6744L38.7922 39.065C38.8304 39.1242 38.8631 39.1787 38.8904 39.2309C38.9177 39.283 38.9395 39.3327 38.9586 39.3825L39.0294 39.2285C39.0559 39.1722 39.0869 39.1176 39.1222 39.065L40.0519 37.665C40.0714 37.637 40.0953 37.6115 40.1228 37.5892C40.1551 37.5646 40.1971 37.5519 40.24 37.5536H40.7335L39.223 39.7189Z"/>
            <path d="M17.0513 31.5562C17.2885 31.5822 17.5285 31.6036 17.7711 31.6225C21.45 30.1927 24.5621 27.8524 26.7186 24.8942C28.8751 21.9361 29.9802 18.4913 29.8958 14.9905L25.8415 11.4679C26.6658 15.1952 26.2802 19.0483 24.7278 22.596C23.1754 26.1437 20.5175 29.2462 17.0513 31.5562Z"/>
            <path d="M15.6036 31.3923L15.7127 31.4113C19.4166 29.1094 22.2405 25.8951 23.8192 22.1839C25.3979 18.4727 25.6589 14.4354 24.5683 10.594L18.7936 5.57678C21.1293 9.70081 22.0695 14.3162 21.5048 18.8862C20.94 23.4562 18.8937 27.793 15.6036 31.3923Z"/>
            <path d="M35.1879 19.1266C34.2068 22.9732 31.8241 26.4423 28.3935 29.0189C27.3916 29.7756 26.3109 30.4496 25.1653 31.0324C27.9588 30.3191 30.5264 29.0578 32.6702 27.346C34.8139 25.6342 36.4766 23.5175 37.5299 21.1591L35.1879 19.1266Z"/>
            <path d="M34.269 18.5601L30.9346 15.663C30.8708 18.9661 29.79 22.194 27.8045 25.0114C25.8191 27.8288 23.0013 30.1327 19.6442 31.6838H19.6606C20.4087 31.6835 21.1562 31.6447 21.899 31.5677C25.0364 30.4551 27.808 28.685 29.9664 26.4153C32.1249 24.1456 33.603 21.4469 34.269 18.5601Z"/>
            <path d="M16.0862 3.46096L12.1083 0C8.55217 1.19395 5.49375 3.29288 3.33332 6.02207C1.17289 8.75127 0.0110968 11.9836 0 15.296H0C0.0133281 18.956 1.43121 22.5077 4.02923 25.3889C6.62725 28.27 10.257 30.316 14.344 31.2031C17.9924 27.341 20.1285 22.5688 20.4418 17.5798C20.7551 12.5908 19.2294 7.64499 16.0862 3.46096Z"/>
            <path d="M43.46 18.0274C43.4456 13.6849 41.4538 9.52384 37.9196 6.45323C34.3855 3.38262 29.5963 1.65204 24.5983 1.63954C22.2887 1.63746 19.9988 2.00774 17.8448 2.73158L42.2004 23.8927C43.0343 22.0221 43.4614 20.0333 43.46 18.0274Z"/>
        </g>
    </symbol>
    <symbol id="client_4" viewBox="0 0 85 41">
         <g>
            <path d="M13.1462 12.4028H13.1433C10.7453 12.4028 8.80127 14.1304 8.80127 16.2615V16.264C8.80127 18.3951 10.7453 20.1227 13.1433 20.1227H13.1462C15.5442 20.1227 17.4882 18.3951 17.4882 16.264V16.2615C17.4882 14.1304 15.5442 12.4028 13.1462 12.4028Z"/>
            <path d="M45.195 11.1693C45.1882 8.20934 43.8623 5.37227 41.5074 3.279C39.1525 1.18573 35.9604 0.0067211 32.6297 0V0C29.298 0.00537723 26.1045 1.18379 23.7484 3.27721C21.3922 5.37063 20.0655 8.20846 20.0587 11.1693V27.4922C20.0587 27.4922 45.1922 25.0045 45.195 11.1719V11.1693Z"/>
            <path d="M0 32.8495C0.00604098 34.9091 0.929149 36.8829 2.56761 38.3394C4.20607 39.796 6.42668 40.6171 8.74418 40.6231C11.0612 40.6171 13.2814 39.7964 14.9197 38.3403C16.5581 36.8843 17.4816 34.9112 17.4884 32.8521V21.4944C17.4884 21.4944 0 23.2267 0 32.8495ZM8.74418 34.8845C8.2913 34.8845 7.84859 34.7651 7.47203 34.5415C7.09548 34.3179 6.80199 34.0001 6.62868 33.6283C6.45537 33.2564 6.41002 32.8473 6.49838 32.4525C6.58673 32.0578 6.80481 31.6952 7.12505 31.4106C7.44528 31.126 7.85328 30.9322 8.29746 30.8537C8.74164 30.7751 9.20204 30.8154 9.62045 30.9695C10.0389 31.1235 10.3965 31.3843 10.6481 31.7189C10.8997 32.0536 11.034 32.447 11.034 32.8495C11.0351 33.1174 10.9767 33.3828 10.8622 33.6306C10.7476 33.8784 10.5791 34.1036 10.3664 34.2934C10.1536 34.4832 9.90081 34.6337 9.62244 34.7365C9.34406 34.8392 9.04561 34.8921 8.74418 34.8921V34.8845Z"/>
            <path d="M26.4177 33.7638H24.7302V35.507H23.8513V31.2413H26.6286V31.9532H24.7302V33.0548H26.4177V33.7638ZM30.6423 33.4708C30.6423 33.8907 30.5681 34.2589 30.4196 34.5753C30.2712 34.8917 30.0583 35.1359 29.7809 35.3077C29.5056 35.4796 29.1891 35.5656 28.8317 35.5656C28.4782 35.5656 28.1628 35.4806 27.8854 35.3107C27.6081 35.1407 27.3932 34.8986 27.2409 34.5841C27.0886 34.2677 27.0114 33.9044 27.0095 33.4943V33.2833C27.0095 32.8634 27.0847 32.4943 27.235 32.1759C27.3874 31.8556 27.6013 31.6105 27.8766 31.4406C28.154 31.2687 28.4704 31.1827 28.8259 31.1827C29.1813 31.1827 29.4968 31.2687 29.7722 31.4406C30.0495 31.6105 30.2634 31.8556 30.4138 32.1759C30.5661 32.4943 30.6423 32.8624 30.6423 33.2804V33.4708ZM29.7516 33.2775C29.7516 32.8302 29.6716 32.4904 29.5114 32.2579C29.3513 32.0255 29.1227 31.9093 28.8259 31.9093C28.5309 31.9093 28.3034 32.0245 28.1432 32.255C27.9831 32.4835 27.902 32.8195 27.9001 33.2628V33.4708C27.9001 33.9064 27.9802 34.2443 28.1403 34.4845C28.3005 34.7247 28.5309 34.8448 28.8317 34.8448C29.1266 34.8448 29.3532 34.7296 29.5114 34.4991C29.6696 34.2667 29.7497 33.9288 29.7516 33.4855V33.2775ZM33.4929 34.3878C33.4929 34.2218 33.4343 34.0948 33.3171 34.007C33.1999 33.9171 32.989 33.8234 32.6843 33.7257C32.3796 33.6261 32.1384 33.5284 31.9606 33.4327C31.4763 33.171 31.2341 32.8185 31.2341 32.3751C31.2341 32.1447 31.2985 31.9396 31.4274 31.7599C31.5583 31.5782 31.7448 31.4366 31.987 31.3351C32.2311 31.2335 32.5046 31.1827 32.8073 31.1827C33.112 31.1827 33.3835 31.2384 33.6218 31.3497C33.86 31.4591 34.0446 31.6144 34.1755 31.8156C34.3083 32.0167 34.3747 32.2452 34.3747 32.5011H33.4958C33.4958 32.3058 33.4343 32.1544 33.3112 32.047C33.1882 31.9376 33.0153 31.8829 32.7927 31.8829C32.5778 31.8829 32.4108 31.9288 32.2917 32.0206C32.1725 32.1105 32.113 32.2296 32.113 32.3781C32.113 32.5167 32.1823 32.6329 32.321 32.7267C32.4616 32.8204 32.6677 32.9083 32.9391 32.9904C33.4391 33.1407 33.8034 33.3273 34.0319 33.5499C34.2604 33.7726 34.3747 34.0499 34.3747 34.382C34.3747 34.7511 34.235 35.0411 33.9557 35.2521C33.6765 35.4611 33.3005 35.5656 32.8278 35.5656C32.4997 35.5656 32.2009 35.506 31.9313 35.3868C31.6618 35.2657 31.4557 35.1007 31.3132 34.8917C31.1725 34.6827 31.1022 34.4406 31.1022 34.1652H31.9841C31.9841 34.6359 32.2653 34.8712 32.8278 34.8712C33.0368 34.8712 33.1999 34.8292 33.3171 34.7452C33.4343 34.6593 33.4929 34.5402 33.4929 34.3878ZM38.1833 31.9532H36.8766V35.507H35.9977V31.9532H34.7087V31.2413H38.1833V31.9532ZM41.2536 33.6583H39.5661V34.8009H41.5466V35.507H38.6872V31.2413H41.5407V31.9532H39.5661V32.9698H41.2536V33.6583ZM43.6413 33.9454H42.9411V35.507H42.0622V31.2413H43.6472C44.1511 31.2413 44.5397 31.3536 44.8132 31.5782C45.0866 31.8029 45.2233 32.1202 45.2233 32.5304C45.2233 32.8214 45.1599 33.0646 45.0329 33.2599C44.9079 33.4532 44.7175 33.6075 44.4616 33.7228L45.3845 35.4659V35.507H44.4411L43.6413 33.9454ZM42.9411 33.2335H43.6501C43.8708 33.2335 44.0417 33.1779 44.1628 33.0665C44.2839 32.9532 44.3444 32.798 44.3444 32.6007C44.3444 32.3995 44.2868 32.2413 44.1716 32.1261C44.0583 32.0109 43.8835 31.9532 43.6472 31.9532H42.9411V33.2335ZM48.2673 34.004V35.507H47.3884V31.2413H49.0524C49.3727 31.2413 49.654 31.2999 49.8962 31.4171C50.1403 31.5343 50.3278 31.7013 50.4587 31.9181C50.5895 32.1329 50.655 32.3781 50.655 32.6534C50.655 33.0714 50.5114 33.4015 50.2243 33.6437C49.9391 33.8839 49.5436 34.004 49.0378 34.004H48.2673ZM48.2673 33.2921H49.0524C49.2849 33.2921 49.4616 33.2374 49.5827 33.1281C49.7057 33.0187 49.7673 32.8624 49.7673 32.6593C49.7673 32.4503 49.7057 32.2814 49.5827 32.1525C49.4597 32.0236 49.2897 31.9572 49.0729 31.9532H48.2673V33.2921ZM53.8278 33.6583H52.1403V34.8009H54.1208V35.507H51.2614V31.2413H54.1149V31.9532H52.1403V32.9698H53.8278V33.6583ZM57.9059 31.9532H56.5993V35.507H55.7204V31.9532H54.4313V31.2413H57.9059V31.9532ZM60.9763 33.6583H59.2888V34.8009H61.2692V35.507H58.4099V31.2413H61.2634V31.9532H59.2888V32.9698H60.9763V33.6583ZM63.364 33.9454H62.6638V35.507H61.7849V31.2413H63.3698C63.8737 31.2413 64.2624 31.3536 64.5358 31.5782C64.8093 31.8029 64.946 32.1202 64.946 32.5304C64.946 32.8214 64.8825 33.0646 64.7556 33.2599C64.6306 33.4532 64.4401 33.6075 64.1843 33.7228L65.1071 35.4659V35.507H64.1638L63.364 33.9454ZM62.6638 33.2335H63.3727C63.5934 33.2335 63.7643 33.1779 63.8854 33.0665C64.0065 32.9532 64.0671 32.798 64.0671 32.6007C64.0671 32.3995 64.0095 32.2413 63.8942 32.1261C63.7809 32.0109 63.6061 31.9532 63.3698 31.9532H62.6638V33.2335ZM67.8288 34.3878C67.8288 34.2218 67.7702 34.0948 67.653 34.007C67.5358 33.9171 67.3249 33.8234 67.0202 33.7257C66.7155 33.6261 66.4743 33.5284 66.2966 33.4327C65.8122 33.171 65.57 32.8185 65.57 32.3751C65.57 32.1447 65.6345 31.9396 65.7634 31.7599C65.8942 31.5782 66.0807 31.4366 66.3229 31.3351C66.5671 31.2335 66.8405 31.1827 67.1432 31.1827C67.4479 31.1827 67.7194 31.2384 67.9577 31.3497C68.196 31.4591 68.3806 31.6144 68.5114 31.8156C68.6442 32.0167 68.7106 32.2452 68.7106 32.5011H67.8317C67.8317 32.3058 67.7702 32.1544 67.6472 32.047C67.5241 31.9376 67.3513 31.8829 67.1286 31.8829C66.9138 31.8829 66.7468 31.9288 66.6276 32.0206C66.5085 32.1105 66.4489 32.2296 66.4489 32.3781C66.4489 32.5167 66.5182 32.6329 66.6569 32.7267C66.7975 32.8204 67.0036 32.9083 67.2751 32.9904C67.7751 33.1407 68.1393 33.3273 68.3679 33.5499C68.5964 33.7726 68.7106 34.0499 68.7106 34.382C68.7106 34.7511 68.571 35.0411 68.2917 35.2521C68.0124 35.4611 67.6364 35.5656 67.1638 35.5656C66.8356 35.5656 66.5368 35.506 66.2673 35.3868C65.9977 35.2657 65.7917 35.1007 65.6491 34.8917C65.5085 34.6827 65.4382 34.4406 65.4382 34.1652H66.32C66.32 34.6359 66.6013 34.8712 67.1638 34.8712C67.3727 34.8712 67.5358 34.8292 67.653 34.7452C67.7702 34.6593 67.8288 34.5402 67.8288 34.3878Z"/>
        </g>

    </symbol>
    <symbol id="client_5" viewBox="0 0 63 46">
        <g>
            <path d="M4.7569 37.9685C5.00058 38.2447 5.13038 38.5905 5.12358 38.9455C5.13601 39.177 5.0914 39.4082 4.99304 39.6218C4.89469 39.8354 4.74511 40.026 4.55539 40.1795C4.08201 40.5069 3.49555 40.6669 2.90369 40.6302H0V34.4387H2.84423C3.40566 34.4045 3.96263 34.5499 4.41995 34.8501C4.60363 34.9909 4.74908 35.1688 4.84482 35.3698C4.94055 35.5709 4.98396 35.7895 4.97162 36.0085C4.98831 36.3501 4.87115 36.6858 4.64128 36.9553C4.42059 37.2013 4.1156 37.3718 3.77579 37.4392C4.16101 37.5036 4.50873 37.6912 4.7569 37.9685ZM1.35109 37.0339H2.56674C2.84303 37.0526 3.11743 36.9796 3.33974 36.8282C3.43101 36.7525 3.50203 36.6585 3.54728 36.5536C3.59254 36.4487 3.61082 36.3357 3.60071 36.2233C3.60929 36.1113 3.59063 35.9989 3.54607 35.8943C3.50151 35.7897 3.43217 35.6955 3.34304 35.6184C3.11408 35.4627 2.83115 35.3885 2.54692 35.4097H1.35109V37.0339ZM3.45866 39.4082C3.55623 39.3307 3.63292 39.2336 3.68277 39.1245C3.73262 39.0154 3.75428 38.8972 3.74606 38.7791C3.7535 38.6597 3.73085 38.5403 3.67988 38.4302C3.6289 38.32 3.55095 38.2221 3.45205 38.1439C3.21421 37.9825 2.9217 37.9032 2.6262 37.9201H1.35109V39.623H2.64272C2.93345 39.6384 3.22122 39.5626 3.45866 39.4082Z"/>
            <path d="M10.5709 40.6302L8.98857 38.2105H8.39396V40.6302H7.03296V34.4388H9.60961C10.2591 34.3972 10.9012 34.5856 11.4034 34.965C11.7635 35.3011 11.9808 35.7439 12.0159 36.2136C12.051 36.6833 11.9018 37.1491 11.595 37.5269C11.2771 37.8604 10.8428 38.0827 10.3661 38.1561L12.0508 40.6302H10.5709ZM8.39396 37.3666H9.50721C10.2802 37.3666 10.6667 37.0541 10.6667 36.429C10.6746 36.3013 10.6534 36.1736 10.6045 36.0538C10.5556 35.9341 10.48 35.8249 10.3826 35.7333C10.1383 35.5473 9.82374 35.4571 9.50721 35.4823H8.38075L8.39396 37.3666Z"/>
            <path d="M18.0102 39.3839H15.2981L14.8191 40.6301H13.392L15.8828 34.5082H17.4255L19.9063 40.6301H18.4793L18.0102 39.3839ZM17.6468 38.4463L16.6558 35.833L15.6648 38.4463H17.6468Z"/>
            <path d="M27.3224 40.6302H25.9713L22.9421 36.4199V40.6302H21.5943V34.4387H22.9421L25.9713 38.6732V34.4387H27.3224V40.6302Z"/>
            <path d="M35.0326 39.1482C34.7532 39.6156 34.3276 39.9959 33.8103 40.2401C33.2222 40.512 32.5695 40.6461 31.9109 40.6302H29.506V34.4388H31.9109C32.5684 34.423 33.2202 34.5538 33.8103 34.8199C34.3275 35.0585 34.7536 35.435 35.0326 35.8997C35.3107 36.4032 35.4556 36.9596 35.4556 37.5239C35.4556 38.0882 35.3107 38.6446 35.0326 39.1482ZM33.4866 38.9999C33.8722 38.5886 34.0842 38.0645 34.0842 37.5224C34.0842 36.9803 33.8722 36.4562 33.4866 36.0449C33.0205 35.6723 32.4127 35.4832 31.7952 35.5186H30.8571V39.5262H31.7952C32.4127 39.5616 33.0205 39.3725 33.4866 38.9999Z"/>
            <path d="M18.8558 0C18.8558 0 36.2945 6.02814 35.9245 14.7512V29.5055C35.9245 29.5055 18.4991 23.4743 18.8624 14.7512L18.8558 0Z"/>
            <path d="M51.4603 26.0513C54.7538 23.9761 58.5633 22.6907 62.5399 22.3129V17.6942C57.9579 19.3112 54.0709 22.2431 51.4603 26.0513Z"/>
            <path d="M49.4816 27.4428C52.1773 22.4729 56.8505 18.6379 62.54 16.7264V3.41797C62.54 3.41797 37.705 12.005 38.2303 24.4272V45.4334C38.2303 45.4334 39.3369 45.0493 41.0778 44.3294C41.0778 43.658 41.0778 42.9804 41.1571 42.2999C41.6711 36.5329 44.6654 31.1888 49.4816 27.4428Z"/>
            <path d="M47.1197 35.2464C47.2502 33.7895 47.5413 32.3485 47.9885 30.9453C44.9896 34.1804 43.1734 38.1947 42.7956 42.4239C42.7592 42.8231 42.7394 43.2224 42.7295 43.6337C44.14 43.0137 45.7818 42.2394 47.5062 41.329C47.0662 39.3281 46.936 37.2805 47.1197 35.2464Z"/>
            <path d="M48.1075 35.322C47.9421 37.1623 48.0454 39.0146 48.4147 40.8299C55.1999 37.1126 62.8241 31.3688 62.5301 24.4272V23.8223C57.6824 24.3189 53.1468 26.2593 49.6204 29.3453C48.7948 31.2577 48.2849 33.272 48.1075 35.322Z"/>
        </g>      
    </symbol>
    <symbol id="client_6" viewBox="0 0 94 44">
        <g>
            <path d="M47.425 20.6415C46.9819 20.0517 46.7699 19.3546 46.8203 18.6529V15.7697C46.8203 14.8859 47.0207 14.2142 47.4216 13.7547C47.8224 13.2952 48.511 13.0664 49.4871 13.0684C50.4044 13.0684 51.0555 13.2639 51.4405 13.655C51.8605 14.154 52.0648 14.7641 52.018 15.3796V16.0572H50.3772V15.3708C50.383 15.1462 50.3671 14.9215 50.3296 14.6991C50.306 14.5471 50.2234 14.4065 50.0952 14.3003C49.9267 14.1857 49.7145 14.1302 49.5007 14.1448C49.2759 14.1303 49.0529 14.1889 48.8756 14.3091C48.7327 14.4267 48.6374 14.581 48.6038 14.749C48.5567 14.9843 48.5351 15.223 48.5393 15.4617V18.9609C48.5134 19.2984 48.5858 19.6362 48.7499 19.9434C48.8315 20.0474 48.9448 20.1298 49.0774 20.1816C49.2099 20.2333 49.3564 20.2524 49.5007 20.2368C49.7109 20.2517 49.9195 20.1948 50.0816 20.0784C50.2153 19.9638 50.3013 19.8143 50.3262 19.6531C50.3645 19.4209 50.3816 19.1865 50.3772 18.9521V18.2423H52.018V18.8905C52.0641 19.532 51.8648 20.1689 51.4507 20.7031C51.0736 21.1313 50.4315 21.3454 49.4871 21.3454C48.5427 21.3454 47.8292 21.1167 47.425 20.6415Z"/>
            <path d="M54.2569 20.6708C53.8424 20.2221 53.6352 19.568 53.6352 18.7028V15.67C53.6352 14.8135 53.8424 14.1653 54.2569 13.7254C54.6713 13.2854 55.3644 13.0664 56.3359 13.0684C57.3007 13.0684 57.9904 13.2874 58.4048 13.7254C58.8193 14.1653 59.0299 14.8135 59.0299 15.67V18.7028C59.0299 19.5592 58.8193 20.2162 58.398 20.6679C57.9768 21.1196 57.2906 21.3454 56.3359 21.3454C55.3813 21.3454 54.6747 21.1167 54.2569 20.6708ZM57.1003 19.9434C57.2487 19.6623 57.3163 19.3544 57.2974 19.0459V15.3327C57.3164 15.0302 57.2499 14.7282 57.1037 14.4528C57.0205 14.3466 56.9043 14.2629 56.7686 14.211C56.6328 14.1591 56.4829 14.1413 56.3359 14.1595C56.1885 14.1417 56.0383 14.1598 55.9021 14.2116C55.7659 14.2634 55.6491 14.3469 55.5648 14.4528C55.4154 14.7274 55.3477 15.0298 55.3678 15.3327V19.0635C55.3471 19.3721 55.4148 19.6804 55.5648 19.961C55.6604 20.0557 55.7785 20.1315 55.9109 20.1834C56.0433 20.2354 56.1871 20.2623 56.3326 20.2623C56.478 20.2623 56.6218 20.2354 56.7542 20.1834C56.8866 20.1315 57.0047 20.0557 57.1003 19.961V19.9434Z"/>
            <path d="M61.0035 13.1569H62.7701L64.0984 18.7525L65.4573 13.1569H67.1763L67.3496 21.2336H66.079L65.9431 15.6203L64.6318 21.2336H63.6126L62.2537 15.5998L62.128 21.2336H60.8439L61.0035 13.1569Z"/>
            <path d="M69.3302 13.1569H72.0819C73.6673 13.1569 74.4599 13.9213 74.4599 15.4502C74.4599 16.9147 73.6254 17.6459 71.9562 17.6439H71.0186V21.2336H69.32L69.3302 13.1569ZM71.6811 16.6087C71.8489 16.6271 72.0193 16.6138 72.1806 16.5697C72.3419 16.5257 72.4902 16.4519 72.6153 16.3535C72.8101 16.0807 72.896 15.7604 72.8599 15.4415C72.8688 15.1951 72.8414 14.9487 72.7783 14.7083C72.7541 14.628 72.7116 14.5526 72.6533 14.4867C72.5949 14.4207 72.522 14.3654 72.4386 14.3241C72.2028 14.2264 71.9422 14.182 71.6811 14.195H71.022V16.6087H71.6811Z"/>
            <path d="M76.9094 13.1569H78.7337L80.6055 21.2336H79.0225L78.6522 19.3713H77.0249L76.6444 21.2336H75.0376L76.9094 13.1569ZM78.4687 18.4358L77.8334 15.0455L77.1982 18.4358H78.4687Z"/>
            <path d="M82.1173 13.1569H83.3063L85.5825 17.7642V13.1569H86.9923V21.2336H85.861L83.5713 16.4239V21.2336H82.1139L82.1173 13.1569Z"/>
            <path d="M90.2945 18.1541L88.4022 13.1682H89.9955L91.1506 16.3709L92.2343 13.1682H93.7936L91.9251 18.1541V21.2336H90.2945V18.1541Z"/>
            <path d="M50.0477 24.7649V25.1872H48.6617V28.4692H48.0807V25.1872H46.6879V24.7649H50.0477Z"/>
            <path d="M54.3927 28.4695H53.9442C53.8987 28.4719 53.8538 28.4593 53.8185 28.4343C53.7846 28.4128 53.7587 28.3832 53.7438 28.3492L53.3429 27.4694H51.4201L51.0192 28.3492C51.0078 28.386 50.9869 28.4201 50.958 28.4489C50.9225 28.4735 50.8778 28.486 50.8324 28.4841H50.3839L52.0825 24.78H52.6737L54.3927 28.4695ZM51.5797 27.094H53.1833L52.5038 25.5865C52.4537 25.4725 52.4117 25.356 52.3781 25.2375C52.3543 25.3079 52.3339 25.3754 52.3136 25.434L52.2524 25.5895L51.5797 27.094Z"/>
            <path d="M57.3211 28.1056C57.4275 28.1104 57.5341 28.1104 57.6404 28.1056C57.7323 28.0975 57.8232 28.0827 57.9122 28.0616C57.9954 28.044 58.0772 28.0215 58.1568 27.9942C58.2316 27.9678 58.3063 27.9355 58.3844 27.9032V27.0702H57.705C57.6882 27.071 57.6714 27.0689 57.6556 27.0638C57.6398 27.0588 57.6254 27.051 57.6133 27.0409C57.6021 27.0325 57.5933 27.0222 57.5874 27.0105C57.5815 26.9988 57.5787 26.9861 57.5793 26.9734V26.6889H58.8974V28.1086C58.7898 28.175 58.6762 28.2339 58.5577 28.2846C58.4366 28.3362 58.3104 28.3784 58.1806 28.4107C58.0417 28.446 57.8996 28.4715 57.7559 28.487C57.5912 28.5027 57.4257 28.5106 57.26 28.5104C56.967 28.5125 56.6763 28.4657 56.4038 28.3726C56.1495 28.2843 55.9184 28.1526 55.7244 27.9854C55.5353 27.8165 55.3864 27.6172 55.2862 27.3987C55.1791 27.1532 55.1261 26.8926 55.1299 26.6302C55.1263 26.3663 55.1781 26.1039 55.2828 25.8559C55.3805 25.6363 55.5297 25.4366 55.721 25.2692C55.9149 25.1026 56.1461 24.9718 56.4005 24.885C56.6914 24.7905 57.0001 24.7437 57.3109 24.7471C57.4691 24.7469 57.627 24.7577 57.7831 24.7794C57.9212 24.7988 58.0567 24.8303 58.1874 24.8732C58.3062 24.9118 58.4201 24.9609 58.5271 25.0199C58.6312 25.0778 58.7301 25.1425 58.8227 25.2135L58.6596 25.4423C58.6468 25.4632 58.6278 25.4807 58.6045 25.4931C58.5812 25.5055 58.5545 25.5123 58.5271 25.5127C58.4895 25.5116 58.453 25.5015 58.4218 25.4834C58.3708 25.4599 58.3165 25.4306 58.2553 25.3954C58.1831 25.3563 58.1069 25.3229 58.0277 25.2956C57.9265 25.2606 57.8219 25.2331 57.7152 25.2135C57.5729 25.1909 57.4284 25.1801 57.2837 25.1812C57.0596 25.1791 56.8371 25.2139 56.6281 25.2839C56.439 25.3494 56.2686 25.4494 56.1287 25.5772C55.9879 25.7104 55.8803 25.8671 55.8127 26.0377C55.661 26.4389 55.661 26.8714 55.8127 27.2726C55.8871 27.4468 56.0028 27.6057 56.1525 27.739C56.2918 27.8661 56.4609 27.9661 56.6485 28.0323C56.8645 28.0963 57.0934 28.1213 57.3211 28.1056Z"/>
            <path d="M62.7362 28.0468H64.5911V28.4692H62.1689V24.7649H62.7498L62.7362 28.0468Z"/>
            <path d="M66.5208 28.4692H65.9398V24.7649H66.5208V28.4692Z"/>
            <path d="M68.6814 24.7825C68.7159 24.7995 68.746 24.8225 68.7697 24.85L71.253 27.6423C71.2497 27.5983 71.2497 27.5543 71.253 27.5103C71.253 27.4692 71.253 27.4282 71.253 27.39V24.7502H71.7592V28.4694H71.4671C71.4238 28.4725 71.3804 28.4654 71.3414 28.4489C71.3061 28.4304 71.275 28.4066 71.2496 28.3785L68.7697 25.5891C68.7697 25.6331 68.7697 25.6742 68.7697 25.7152C68.7697 25.7563 68.7697 25.7944 68.7697 25.8296V28.4694H68.2839V24.7649H68.5863C68.6191 24.765 68.6515 24.771 68.6814 24.7825Z"/>
            <path d="M76.0364 24.7649V25.1726H73.9777V26.3956H75.6457V26.7887H73.9777V28.0528H76.0364V28.4605H73.3798V24.7649H76.0364Z"/>
            <path d="M15.1617 1.88878L40.9568 8.21209V30.3701L15.1617 24.0497V1.88878ZM13.5073 0V25.1261L42.6079 32.2618V7.13866L13.5073 0Z"/>
            <path d="M29.1039 43.9255L0 36.7838V11.6604L29.1039 18.7991V43.9255Z"/>
            <path d="M13.9897 1.60426L39.4484 7.84828L28.6215 17.1982L3.1594 10.9512L13.9897 1.60426ZM13.5073 0L0 11.661L29.1039 18.7995L42.6078 7.13853L13.5073 0Z" fill="#AFB1B8"/>
            <path d="M30.7414 42.512L42.6078 32.2648L30.7414 29.3525V42.512Z"/>
        </g>
    </symbol>
</svg>